<?xml version="1.0" encoding="UTF-8"?>
<svg width="36px" height="64px" viewBox="0 0 36 64" version="1.1" xmlns="http://www.w3.org/2000/svg" xmlns:xlink="http://www.w3.org/1999/xlink">
    <title>icon-04</title>
    <g id="FINAL" stroke="none" stroke-width="1" fill="none" fill-rule="evenodd">
        <g id="HOMEPAGE" transform="translate(-212.000000, -1229.000000)" fill-rule="nonzero">
            <g id="Group-4" transform="translate(81.000000, 1202.000000)">
                <g id="icon-04" transform="translate(131.000000, 27.000000)">
                    <path d="M31.483871,0 C33.4783085,0.00220446828 35.0945697,1.61846571 35.0967742,3.61290323 L35.0967742,60.3870968 C35.0945697,62.3815343 33.4783085,63.9977955 31.483871,64 L3.61290323,64 C1.61846571,63.9977955 0.00220446828,62.3815343 3.55271368e-15,60.3870968 L3.55271368e-15,3.61290323 C0.00220446828,1.61846571 1.61846571,0.00220446828 3.61290323,0 Z M10.5483871,2.06451613 L3.61290323,2.06451613 C2.75804753,2.06522762 2.06522762,2.75804753 2.06451613,3.61290323 L2.06451613,60.3870968 C2.06522762,61.2419525 2.75804753,61.9347724 3.61290323,61.9354839 L31.483871,61.9354839 C32.3387267,61.9347724 33.0315466,61.2419525 33.0322581,60.3870968 L33.0322581,3.61290323 C33.0315466,2.75804753 32.3387267,2.06522762 31.483871,2.06451613 L24.523871,2.06451613 L23.5741935,5.44129032 C23.4488053,5.88622036 23.0429058,6.19354426 22.5806452,6.19354839 L12.3870968,6.19354839 C11.9134711,6.19347668 11.5006607,5.87110154 11.3858065,5.4116129 L10.5483871,2.06451613 Z M21.6774194,58.8387097 C22.2475197,58.8387097 22.7096774,59.3008674 22.7096774,59.8709677 C22.7096774,60.4410681 22.2475197,60.9032258 21.6774194,60.9032258 L13.4193548,60.9032258 C12.8492545,60.9032258 12.3870968,60.4410681 12.3870968,59.8709677 C12.3870968,59.3008674 12.8492545,58.8387097 13.4193548,58.8387097 Z M25.8064516,34.0645161 C26.376552,34.0645161 26.8387097,34.5266738 26.8387097,35.0967742 L26.8387097,51.6129032 C26.8387097,52.1830036 26.376552,52.6451613 25.8064516,52.6451613 L9.29032258,52.6451613 C8.72022219,52.6451613 8.25806452,52.1830036 8.25806452,51.6129032 L8.25806452,35.0967742 C8.25806452,34.5266738 8.72022219,34.0645161 9.29032258,34.0645161 Z M13.4193548,36.1290323 L10.3225806,36.1290323 L10.3225806,50.5806452 L24.7741935,50.5806452 L24.7741935,36.1290323 L21.6774194,36.1290323 L21.6774194,41.2903226 C21.6774194,41.860423 21.2152617,42.3225806 20.6451613,42.3225806 L14.4516129,42.3225806 C13.8815125,42.3225806 13.4193548,41.860423 13.4193548,41.2903226 L13.4193548,36.1290323 Z M19.6129032,36.1290323 L15.483871,36.1290323 L15.483871,40.2580645 L19.6129032,40.2580645 L19.6129032,36.1290323 Z M22.3793548,2.06451613 L12.6774194,2.06451613 L13.1935484,4.12903226 L21.7987097,4.12903226 L22.3793548,2.06451613 Z" id="Combined-Shape" fill="#202332"></path>
                    <path d="M17.5483871,10.3225806 C22.6769029,10.3283405 26.8329498,14.4843875 26.8387097,19.6129032 C26.8387097,21.7486452 25.3710968,24.6276129 22.4774194,28.1698065 C21.1597547,29.7755417 19.7512575,31.3045371 18.2588387,32.7492903 C17.8606645,33.1266437 17.2368839,33.1266437 16.8387097,32.7492903 C15.3462467,31.3045407 13.9377063,29.7755453 12.62,28.1698065 C9.72567742,24.6276129 8.25806452,21.7486452 8.25806452,19.6129032 C8.26382438,14.4843875 12.4198713,10.3283405 17.5483871,10.3225806 Z M17.5483871,12.3870968 C13.5576844,12.3870968 10.3225806,15.6222005 10.3225806,19.6129032 C10.3225806,21.2107097 11.7015484,23.779871 14.2052903,26.8472258 C15.4846452,28.4144516 16.7774194,29.7707097 17.5483871,30.5496774 C18.3193548,29.7707097 19.612129,28.4144516 20.8914839,26.8472258 C23.3952258,23.779871 24.7741935,21.2107097 24.7741935,19.6129032 C24.7741935,15.6222005 21.5390898,12.3870968 17.5483871,12.3870968 Z M17.5483871,14.4516129 C19.2578629,14.4536038 20.6431704,15.8389113 20.6451613,17.5483871 C20.6451613,19.2586883 19.2586883,20.6451613 17.5483871,20.6451613 C15.8380859,20.6451613 14.4516129,19.2586883 14.4516129,17.5483871 C14.4516129,15.8380859 15.8380859,14.4516129 17.5483871,14.4516129 Z M17.5483871,16.516129 C16.9782867,16.516129 16.516129,16.9782867 16.516129,17.5483871 C16.516129,18.1184875 16.9782867,18.5806452 17.5483871,18.5806452 C18.1182222,18.5800052 18.5800052,18.1182222 18.5806452,17.5483871 C18.5806452,16.9782867 18.1184875,16.516129 17.5483871,16.516129 Z" id="Combined-Shape" fill="#F2C928"></path>
                </g>
            </g>
        </g>
    </g>
</svg>