<?xml version="1.0" encoding="UTF-8"?>
<svg width="65px" height="64px" viewBox="0 0 65 64" version="1.1" xmlns="http://www.w3.org/2000/svg" xmlns:xlink="http://www.w3.org/1999/xlink">
    <title>icon-03</title>
    <g id="FINAL" stroke="none" stroke-width="1" fill="none" fill-rule="evenodd">
        <g id="HOMEPAGE" transform="translate(-524.000000, -1229.000000)">
            <g id="Group-4" transform="translate(407.000000, 1202.000000)">
                <g id="icon-03" transform="translate(117.000000, 27.000000)">
                    <path d="M45.4254471,26.841812 C44.1915061,26.8423713 42.9606888,26.9658334 41.7512209,27.2103703 C41.4521103,26.374081 41.2981342,25.492821 41.2959431,24.6046532 C41.291727,22.4832731 40.6038839,20.4197437 39.3344287,18.72011 L38.3020527,17.3439527 C38.23504,17.2546026 38.1988151,17.1459276 38.1988151,17.0342399 C38.1988151,15.6088261 37.0432889,14.4532999 35.617875,14.4532999 C35.3327923,14.4532999 35.101687,14.2221947 35.101687,13.9371119 C35.101687,12.5116981 33.9461608,11.3561719 32.520747,11.3561719 C29.2352727,11.3617211 26.1222014,9.88652953 24.0459724,7.34022922 L21.5414282,4.27923435 C19.3292955,1.5658334 16.0120977,-0.00610953343 12.5112352,1.78468828e-05 C11.4118975,-0.00339694745 10.4061922,0.618362726 9.91790669,1.60331574 C9.77705257,1.88700212 9.48719421,2.06596164 9.17046646,2.06478782 L6.5048716,2.06478782 C5.4527,2.06187929 4.52408674,2.75175797 4.22308137,3.759959 C3.922076,4.76816002 4.32046888,5.85422554 5.20201308,6.4286412 L6.5048716,7.2679629 C6.98986996,7.58791613 7.2791682,8.13229454 7.27295935,8.71328931 C7.28824032,9.37625969 6.95119171,9.9977176 6.38718074,10.3465082 C5.3558779,11.0188042 4.14836926,11.3701709 2.91736497,11.3561719 L2.91736497,11.3561719 C2.14479549,11.3539073 1.40346772,11.6609969 0.858807212,12.2089145 C0.296389377,12.7713732 -0.0132730472,13.5382628 0.000436599497,14.3335443 C0.00162931901,16.6247701 0.624648429,18.8727772 1.80343126,20.8375132 L5.63870813,27.2299854 C6.00339432,27.8373639 6.19576249,28.5326018 6.1951588,29.2410539 C6.1970929,30.5955313 6.65819882,31.9093374 7.5031792,32.9679313 C9.32616216,35.2536091 10.3207472,38.089614 10.3246628,41.0132375 C10.317389,44.1188463 11.5539847,47.0980529 13.7583454,49.2856664 C14.8614537,50.3947621 15.4824751,51.8942654 15.4865429,53.4585303 C15.4863585,54.4139624 15.6580586,55.3616351 15.9934395,56.2562693 L18.0581915,61.7547039 C18.6502197,63.3219087 20.2769406,64.2428255 21.9253711,63.9439858 C23.5738016,63.645146 24.7737232,62.2117944 24.777927,60.5365002 C24.7779265,60.1731374 25.0721881,59.8784138 25.4355505,59.8778443 L27.6241876,59.8778443 C28.8339515,59.8742738 29.9947452,60.3553971 30.8472655,61.2137389 C31.3163431,61.6784417 31.9492459,61.9402046 32.6095314,61.9425963 C33.5213878,61.9411918 34.3591651,61.4402691 34.7919742,60.637673 C41.3537832,65.226786 50.1179374,65.0942546 56.5379848,60.3088302 C62.9580322,55.5234058 65.5887421,47.1623456 63.0654197,39.5629944 C60.5420973,31.9636431 53.4327731,26.8367072 45.4254471,26.841812 Z M33.036935,59.4504406 C33.0234929,59.6164387 32.9182706,59.7609486 32.7644179,59.8247093 C32.6105653,59.88847 32.4339679,59.8607539 32.3070452,59.7529268 C31.0680706,58.5064627 29.3816584,57.8078806 27.6241876,57.8130923 L25.4355505,57.8130923 C23.9325645,57.8153677 22.7148805,59.0335135 22.7131749,60.5365002 C22.7135215,61.2168302 22.2267442,61.7998215 21.5572705,61.9208749 C20.8877967,62.0419283 20.2276858,61.666316 19.989767,61.0289435 L17.925015,55.5305089 C17.6768954,54.8679319 17.5502962,54.1660404 17.5512949,53.4585303 C17.5441012,51.3414398 16.7015389,49.3127604 15.206769,47.8134983 C13.3968666,46.0141661 12.3823211,43.5653528 12.3894149,41.0132375 C12.3855974,37.620745 11.2311346,34.3298709 9.11471815,31.6784936 C8.56237467,30.98604 8.2610457,30.1268157 8.25991082,29.2410539 C8.25964737,28.1594701 7.96562201,27.0982669 7.40923299,26.1707676 L3.57395612,19.7782954 C2.57834334,18.1131466 2.05678427,16.2075461 2.06554348,14.2674722 C2.06498574,14.0422976 2.15460243,13.8262507 2.31445738,13.6676618 C2.49660081,13.4936492 2.74344801,13.404125 2.99479317,13.4209239 L2.99479317,13.4209239 C4.62300551,13.419044 6.21452298,12.937136 7.57028364,12.0354753 C8.72799493,11.2715709 9.39763643,9.95425623 9.33254949,8.56875667 C9.29792491,7.33597446 8.65750391,6.19959412 7.62087007,5.53150645 L6.33452956,4.70560565 C6.21232573,4.63336832 6.15487742,4.48729878 6.1951312,4.35116781 C6.23538498,4.21503684 6.36303399,4.12370038 6.5048716,4.12953983 L9.17046646,4.12953983 C10.2698042,4.13297258 11.2755095,3.51121291 11.763795,2.52625989 C11.9046491,2.24257351 12.1945075,2.06361399 12.5112352,2.06477355 C15.392933,2.05981817 18.1234245,3.35376774 19.9443425,5.58725476 L22.4488867,8.64721725 C24.9160347,11.673937 28.6159029,13.427544 32.520747,13.4209239 C32.8058298,13.4209239 33.036935,13.6520292 33.036935,13.9371119 C33.036935,14.6216198 33.3088547,15.278092 33.7928749,15.7621121 C34.276895,16.2461323 34.9333672,16.5180519 35.617875,16.5180519 C35.9029578,16.5180519 36.1340631,16.7491572 36.1340631,17.0342399 C36.1351725,17.5924979 36.3161839,18.1355319 36.6502511,18.582804 L37.6826271,19.9599935 C38.6848286,21.3018097 39.2278626,22.9309118 39.2311911,24.6056856 C39.2330637,25.670442 39.4073836,26.7278663 39.7473791,27.736882 C33.4013659,29.7607261 28.6283497,35.0327056 27.2433652,41.5480449 C25.8583807,48.0633842 28.0742296,54.821007 33.0482912,59.2511921 C33.0493235,59.3172641 33.036935,59.3833362 33.036935,59.4504406 Z M45.4254471,61.9425963 C36.3027987,61.9425963 28.907431,54.5472286 28.907431,45.4245802 C28.907431,36.3019318 36.3027987,28.906564 45.4254471,28.906564 C54.5480955,28.906564 61.9434633,36.3019318 61.9434633,45.4245802 C61.9326547,54.5427478 54.5436147,61.9317877 45.4254471,61.9425963 L45.4254471,61.9425963 Z" id="Shape" fill="#202332" fill-rule="nonzero"></path>
                    <circle id="Oval" fill="#F2C928" cx="23.5" cy="8.5" r="3.5"></circle>
                    <circle id="Oval" fill="#F2C928" cx="11.5" cy="44.5" r="3.5"></circle>
                    <circle id="Oval" fill="#F2C928" cx="6.5" cy="11.5" r="3.5"></circle>
                    <path d="M44.8105757,45.4739401 L44.8105757,58.90019 C45.2864361,59.0816307 46.0029757,59.3639898 46.7260777,59.716052 L46.7260777,45.5626207 C47.8341474,46.8603671 48.7506541,48.3101141 49.4476868,49.8677114 C49.4533623,49.8808362 49.4567322,49.888108 49.457619,49.8898816 C49.9236506,49.6915514 50.2827378,49.3035513 50.4444572,48.8235855 C50.6137705,48.3310038 50.5643933,47.7895334 50.3087758,47.3357016 C49.5457658,45.9734546 48.6098154,44.715585 47.5242035,43.5933783 C48.1982535,43.8200221 48.8541277,44.0975027 49.4861742,44.4234291 C50.0359803,44.7053367 50.5710095,45.0151777 51.0891655,45.3517381 C51.6069761,45.6815972 52.1044854,46.0422914 52.5790004,46.4318684 C52.9136002,46.0282096 53.0596061,45.5007294 52.9801917,44.9824719 C52.9433794,44.7377177 52.8563008,44.5032335 52.7244367,44.293778 C52.5877484,44.0763909 52.4048764,43.8917629 52.1888056,43.7530034 C50.9108221,42.8877368 49.5204096,42.2014818 48.0562874,41.7133486 C49.0179607,41.4131304 50.0066529,41.207539 51.0082888,41.0995011 C51.6896792,41.0215655 52.3748828,40.9816564 53.0607137,40.9799596 C53.1987008,40.9799596 53.3304802,40.9820879 53.4525048,40.9858125 L53.4619049,40.9858125 L53.4656295,40.9858125 C53.4930729,40.4840116 53.3117944,39.9931986 52.9647612,39.6297081 C52.8032855,39.4596768 52.6097235,39.3233214 52.3952541,39.2285168 C52.1753308,39.1312637 51.9374495,39.0812343 51.6969827,39.0816617 C51.6496272,39.0816617 51.6003208,39.0834353 51.5504823,39.0875146 C49.9961938,39.1978332 48.4634188,39.5139308 46.992297,40.0275295 C47.5760586,39.2156531 48.2288058,38.4556774 48.9432712,37.7560634 C49.2059433,37.4962291 49.6151158,37.1079852 50.0718212,36.7318019 C50.0865421,36.720096 50.0952328,36.7128242 50.0964744,36.7114053 C49.9309972,36.489005 49.7141883,36.3099232 49.4645361,36.189431 C49.2235353,36.0737344 48.9596383,36.013609 48.692305,36.0134886 C48.2211557,36.0123788 47.7691329,36.199753 47.4369418,36.5338667 C46.8388271,37.1517791 46.2762777,37.803152 45.7520095,38.4848409 C45.22217,37.8025396 44.6536827,37.1511479 44.049341,36.5338667 C43.7259429,36.1916841 43.275441,35.9984652 42.8046195,36 C42.2470859,36.0007893 41.7225866,36.264518 41.3894537,36.7115827 C41.7606037,37.0058175 42.1158289,37.3195997 42.4536215,37.6515976 C43.2314376,38.3990118 43.9435084,39.2119593 44.581957,40.0814473 C43.7732865,39.7866031 42.9423704,39.5567815 42.0971253,39.3941723 C41.3773856,39.2538453 40.64973,39.157713 39.9182418,39.1063149 C39.877094,39.1034771 39.8370103,39.1025903 39.7992324,39.1025903 C39.5528898,39.102357 39.3092282,39.1537114 39.0839343,39.2533474 C38.3964012,39.5579332 37.9666463,40.2536429 38.0020304,41.0047902 L38.0039813,41.0047902 C38.006287,41.0047902 38.0100116,41.0047902 38.0151551,41.0047902 L38.0208307,41.0047902 C38.0703145,41.0030166 38.2017392,40.9989373 38.4049952,40.9989373 C39.088996,41.0006954 39.7723663,41.0406045 40.4519219,41.1184788 C41.4560802,41.2272731 42.4473953,41.432723 43.4120819,41.7319715 C41.9527524,42.2316927 40.5638302,42.9172122 39.2795638,43.7716264 C38.8488876,44.056956 38.5601537,44.512241 38.4856711,45.0234625 C38.4111885,45.5346839 38.5580109,46.0534274 38.8893689,46.4497819 C39.3637271,46.0614789 39.8604206,45.7012917 40.3768981,45.3710705 C41.4887882,44.6397528 42.6870046,44.0490148 43.9441658,43.6123559 C42.8567736,44.7265009 41.9205624,45.9787579 41.1595935,47.3369431 C40.8990137,47.777975 40.8418466,48.3101334 41.0028061,48.7964492 C41.1662592,49.2890596 41.5334165,49.6877392 42.0109277,49.8911231 C42.0109277,49.8897042 42.0137655,49.8849155 42.0178448,49.8751606 C42.7339276,48.2823221 43.6749033,46.8004975 44.8119946,45.4750042 L44.8105757,45.4739401 Z" id="Path" fill="#F2C928"></path>
                </g>
            </g>
        </g>
    </g>
</svg>