<?xml version="1.0" encoding="UTF-8"?>
<svg width="62px" height="64px" viewBox="0 0 62 64" version="1.1" xmlns="http://www.w3.org/2000/svg" xmlns:xlink="http://www.w3.org/1999/xlink">
    <title>icon-02</title>
    <g id="FINAL" stroke="none" stroke-width="1" fill="none" fill-rule="evenodd">
        <g id="HOMEPAGE" transform="translate(-853.000000, -1229.000000)" fill-rule="nonzero">
            <g id="Group-4" transform="translate(733.000000, 1202.000000)">
                <g id="icon-02" transform="translate(120.000000, 27.000000)">
                    <path d="M55.6470338,43.4398349 C56.9366675,42.0796561 59.0430623,41.9073539 60.5365974,43.0398706 C62.121462,44.2542156 62.4568851,46.5070372 61.2945298,48.1304163 L53.2292496,59.2764216 C51.5340708,61.6121697 48.8239591,62.9962147 45.9379003,63.0000892 L25.5977155,63.0000892 C23.1546344,63.0024851 20.7614323,62.3088033 18.6983313,61.0002677 L15.9985722,61.0002677 L15.9985722,63.0000892 C15.9985722,63.5523247 15.5508969,64 14.9986615,64 L0.999910764,64 C0.447675298,64 0,63.5523247 0,63.0000892 L0,46.0016063 C0,45.4493708 0.447675298,45.0016955 0.999910764,45.0016955 L14.9986615,45.0016955 C15.5508969,45.0016955 15.9985722,45.4493708 15.9985722,46.0016063 L15.9985722,48.0014278 L18.724329,48.0014278 L18.9763065,47.8334428 C22.6536418,45.438215 27.3978914,45.438215 31.0752267,47.8334428 L31.3272042,48.0014278 L42.0262494,48.0014278 C42.9697731,48.00542 43.8809429,48.3457792 44.5960201,48.9613421 L49.1766113,44.1517713 C50.4656955,42.7912948 52.5720959,42.6189569 54.065175,43.751807 C54.3108867,43.9436525 54.5304023,44.1668659 54.7181167,44.4157478 Z M13.9987507,47.001517 L1.99982153,47.001517 L1.99982153,62.0001785 L13.9987507,62.0001785 L13.9987507,47.001517 Z M59.383814,44.6842968 C58.7049764,44.1199588 57.7052483,44.1769204 57.0949046,44.8147122 L47.9317224,54.4468526 C46.9865664,55.4371226 45.6779683,55.9984147 44.3090457,56.0007139 L32.0171426,56.0007139 C31.4649072,56.0007139 31.0172319,55.5530386 31.0172319,55.0008031 C31.0172319,54.4485677 31.4649072,54.0008924 32.0171426,54.0008924 L42.0162503,54.0008924 C43.1207212,54.0008924 44.0160718,53.1055418 44.0160718,52.0010708 C44.0160718,50.8965999 43.1207212,50.0012493 42.0162503,50.0012493 L31.0172319,50.0012493 C30.8200578,50.0010963 30.6273301,49.9426518 30.4632813,49.8332643 L29.9633259,49.4972943 C26.9599146,47.5404191 23.0846192,47.5404191 20.0812079,49.4972943 L19.5812525,49.8332643 C19.4169203,49.9428406 19.2238167,50.0012936 19.026302,50.0012493 L15.9985722,50.0012493 L15.9985722,59.0004462 L18.9983045,59.0004462 C19.1957663,59.0007586 19.388769,59.059181 19.553255,59.1684312 C21.3439586,60.3643967 23.4493572,61.0019322 25.6027151,61.000271 L45.9379003,61.000271 C48.1830729,60.9963223 50.2908482,59.9184616 51.6083942,58.1005265 L59.6756743,46.9585209 C60.189254,46.2419488 60.0626515,45.2486348 59.383814,44.6842968 Z M52.8572828,45.3416652 C52.1756224,44.8249009 51.214419,44.9032787 50.625482,45.5236489 L45.767,50.629 L45.8471138,50.857733 C46.1136696,51.7058686 46.0778608,52.6206501 45.7458221,53.4453539 L45.6479262,53.6679221 C45.9586011,53.5178327 46.2407861,53.3148219 46.4818518,53.0679756 L53.314242,45.8876164 C53.2052978,45.6733324 53.0490358,45.4866385 52.8572828,45.3416652 Z M32.9970552,0 C41.6060388,0 48.8557988,6.43613124 49.8758051,14.9844753 C50.8958113,23.5328193 45.3639779,31.494077 36.9966983,33.5197202 L36.9966983,37.0024094 L38.9965198,37.0024094 C39.4008796,37.0024957 39.7653852,37.2461151 39.9201153,37.6196997 C40.0748455,37.9932843 39.9893391,38.4232883 39.7034567,38.7092571 L33.7039921,44.7087216 C33.3135271,45.0990687 32.6805833,45.0990687 32.2901183,44.7087216 L26.2906537,38.7092571 C26.0047713,38.4232883 25.9192649,37.9932843 26.0739951,37.6196997 C26.2287252,37.2461151 26.5932308,37.0024957 26.9975906,37.0024094 L28.9974121,37.0024094 L28.9974121,33.5197202 C20.6301325,31.494077 15.0982991,23.5328193 16.1183053,14.9844753 C17.1383116,6.43613124 24.3880716,0 32.9970552,0 Z M32.9970552,2.00553266 C25.2743507,2.0233262 18.8274936,7.90232358 18.099703,15.5906785 C17.3719124,23.2790335 22.6011144,30.2633032 30.1833063,31.7298799 C30.655234,31.8192174 30.9969696,32.2314832 30.9972337,32.7117923 L30.9972337,38.0023201 C30.9972337,38.5545556 30.5495584,39.0022309 29.9973229,39.0022309 L29.4113752,39.0022309 L32.9970552,42.5879109 L36.5827352,39.0022309 L35.9967875,39.0022309 C35.444552,39.0022309 34.9968767,38.5545556 34.9968767,38.0023201 L34.9968767,32.7117923 C34.9971408,32.2314832 35.3388764,31.8192174 35.8108041,31.7298799 C43.392996,30.2633032 48.622198,23.2790335 47.8944074,15.5906785 C47.1666168,7.90232358 40.7197597,2.0233262 32.9970552,2.00553266 Z M32.9970552,4.00535419 C40.1761163,4.00535419 45.9958951,9.82513306 45.9958951,17.0041941 C45.9958951,24.1832552 40.1761163,30.003034 32.9970552,30.003034 C25.8214205,29.9947688 20.0064806,24.1798288 19.9982153,17.0041941 C19.9982153,9.82513306 25.8179941,4.00535419 32.9970552,4.00535419 Z M32.9970552,6.00517571 C26.9254345,6.01233857 22.0051997,10.9325734 21.9980368,17.0041941 C21.9980368,23.0787842 26.9224651,28.0032125 32.9970552,28.0032125 C39.0716453,28.0032125 43.9960736,23.0787842 43.9960736,17.0041941 C43.9960736,10.929604 39.0716453,6.00517571 32.9970552,6.00517571 Z" id="Combined-Shape" fill="#202332"></path>
                    <path d="M30.9972337,20.0039264 C30.9972337,19.4516909 30.5495584,19.0040156 29.9973229,19.0040156 C29.4450874,19.0040156 28.9974121,19.4516909 28.9974121,20.0039264 C29.0042264,21.8221758 30.2366164,23.4070294 31.9971444,23.8615821 L31.9971444,25.0034802 C31.9971444,25.5557157 32.4448197,26.003391 32.9970552,26.003391 C33.5492907,26.003391 33.996966,25.5557157 33.996966,25.0034802 L33.996966,23.8615821 C35.7610109,23.4125987 36.995763,21.8242123 36.995763,20.0039264 C36.995763,18.1836405 35.7610109,16.5952541 33.996966,16.1462707 L33.996966,12.2826155 C34.6136622,12.6369964 34.9947319,13.2931985 34.9968767,14.0044618 C34.9968767,14.5566973 35.444552,15.0043726 35.9967875,15.0043726 C36.549023,15.0043726 36.9966983,14.5566973 36.9966983,14.0044618 C36.989884,12.1862125 35.757494,10.6013589 33.996966,10.1468061 L33.996966,9.004908 C33.996966,8.45267254 33.5492907,8.00499724 32.9970552,8.00499724 C32.4448197,8.00499724 31.9971444,8.45267254 31.9971444,9.004908 L31.9971444,10.1468061 C30.2330995,10.5957895 28.9983474,12.184176 28.9983474,14.0044618 C28.9983474,15.8247477 30.2330995,17.4131341 31.9971444,17.8621175 L31.9971444,21.7257727 C31.3804482,21.3713918 30.9993785,20.7151897 30.9972337,20.0039264 Z M33.996966,18.2820801 C34.6150337,18.6350334 34.9965126,19.2921794 34.9965126,20.0039264 C34.9965126,20.7156734 34.6150337,21.3728194 33.996966,21.7257727 L33.996966,18.2820801 Z M30.9972337,14.0044618 C30.9993785,13.2931985 31.3804482,12.6369964 31.9971444,12.2826155 L31.9971444,15.7263082 C31.3804482,15.3719272 30.9993785,14.7157251 30.9972337,14.0044618 Z" id="Shape" fill="#F2C928"></path>
                </g>
            </g>
        </g>
    </g>
</svg>