<?xml version="1.0" encoding="UTF-8"?>
<svg width="50px" height="35px" viewBox="0 0 50 35" version="1.1" xmlns="http://www.w3.org/2000/svg" xmlns:xlink="http://www.w3.org/1999/xlink">
    <title>icon-05</title>
    <g id="FINAL" stroke="none" stroke-width="1" fill="none" fill-rule="evenodd">
        <g id="HOMEPAGE" transform="translate(-1312.000000, -1707.000000)">
            <g id="Group-8" transform="translate(776.000000, 1562.000000)">
                <g id="Group-6" transform="translate(0.000000, 136.000000)">
                    <g id="icon-05" transform="translate(537.000000, 10.000000)">
                        <rect id="Rectangle" stroke="#202332" stroke-width="1.5" fill="#202332" fill-rule="nonzero" x="0.523636364" y="0.523636364" width="44.6836364" height="27.2290909" rx="4"></rect>
                        <rect id="Rectangle" stroke="#202332" stroke-width="1.5" fill="#F2C928" fill-rule="nonzero" x="0.523636364" y="4.71272727" width="41.8909091" height="23.7381818" rx="4"></rect>
                        <rect id="Rectangle" stroke="#202332" stroke-width="1.5" fill="#F2C928" fill-rule="nonzero" x="0.523636364" y="0.523636364" width="41.8909091" height="23.7381818" rx="4"></rect>
                        <path d="M42.4145455,8.90181818 L42.4145455,1.92 C42.4145455,1.14882327 41.7893236,0.523636364 41.0181818,0.523636364 L34.0363636,0.523636364 C34.0363636,5.15076655 37.7873455,8.90181818 42.4145455,8.90181818 Z" id="Path" fill="#FFFFFF"></path>
                        <path d="M42.4145455,8.90181818 L42.4145455,9.42545455 L42.9381818,9.42545455 L42.9381818,8.90181818 L42.4145455,8.90181818 Z M34.0363636,0.523636364 L34.0363636,0 L33.5127273,0 L33.5127273,0.523636364 L34.0363636,0.523636364 Z M41.8909091,1.92 L41.8909091,8.90181818 L42.9381818,8.90181818 L42.9381818,1.92 L41.8909091,1.92 Z M41.0181818,1.04727273 C41.5002764,1.04727273 41.8909091,1.43801018 41.8909091,1.92 L42.9381818,1.92 C42.9381818,0.859601455 42.07872,0 41.0181818,0 L41.0181818,1.04727273 Z M34.0363636,1.04727273 L41.0181818,1.04727273 L41.0181818,0 L34.0363636,0 L34.0363636,1.04727273 Z M42.4145455,8.37818182 C38.0767418,8.37818182 34.56,4.86157964 34.56,0.523636364 L33.5127273,0.523636364 C33.5127273,5.43998836 37.4982982,9.42545455 42.4145455,9.42545455 L42.4145455,8.37818182 Z" id="Shape" fill="#202332" fill-rule="nonzero"></path>
                        <path d="M8.90181818,0.523636364 L1.92,0.523636364 C1.14882327,0.523636364 0.523636364,1.14882327 0.523636364,1.92 L0.523636364,8.90181818 C5.15076655,8.90181818 8.90181818,5.15076655 8.90181818,0.523636364 Z" id="Path" fill="#FFFFFF"></path>
                        <path d="M1.92,0.523636364 L1.92,1.04727273 L1.92,0.523636364 Z M8.90181818,0.523636364 L9.42545455,0.523636364 L9.42545455,0 L8.90181818,0 L8.90181818,0.523636364 Z M0.523636364,8.90181818 L0,8.90181818 L0,9.42545455 L0.523636364,9.42545455 L0.523636364,8.90181818 Z M1.92,1.04727273 L8.90181818,1.04727273 L8.90181818,0 L1.92,0 L1.92,1.04727273 Z M1.04727273,1.92 C1.04727273,1.43801018 1.43801018,1.04727273 1.92,1.04727273 L1.92,0 C0.859601455,0 0,0.859601455 0,1.92 L1.04727273,1.92 Z M1.04727273,8.90181818 L1.04727273,1.92 L0,1.92 L0,8.90181818 L1.04727273,8.90181818 Z M8.37818182,0.523636364 C8.37818182,4.86157964 4.86157964,8.37818182 0.523636364,8.37818182 L0.523636364,9.42545455 C5.43998836,9.42545455 9.42545455,5.43998836 9.42545455,0.523636364 L8.37818182,0.523636364 Z" id="Shape" fill="#202332" fill-rule="nonzero"></path>
                        <path d="M0.523636364,15.8836364 L0.523636364,22.8654545 C0.523636364,23.6365964 1.14882327,24.2618182 1.92,24.2618182 L8.90181818,24.2618182 C8.90181818,19.634688 5.15076655,15.8836364 0.523636364,15.8836364 Z" id="Path" fill="#FFFFFF"></path>
                        <path d="M0.523636364,22.8654545 L1.04727273,22.8654545 L0.523636364,22.8654545 Z M0.523636364,15.8836364 L0.523636364,15.36 L0,15.36 L0,15.8836364 L0.523636364,15.8836364 Z M8.90181818,24.2618182 L8.90181818,24.7854545 L9.42545455,24.7854545 L9.42545455,24.2618182 L8.90181818,24.2618182 Z M1.04727273,22.8654545 L1.04727273,15.8836364 L0,15.8836364 L0,22.8654545 L1.04727273,22.8654545 Z M1.92,23.7381818 C1.43801018,23.7381818 1.04727273,23.3475491 1.04727273,22.8654545 L0,22.8654545 C0,23.9259927 0.859601455,24.7854545 1.92,24.7854545 L1.92,23.7381818 Z M8.90181818,23.7381818 L1.92,23.7381818 L1.92,24.7854545 L8.90181818,24.7854545 L8.90181818,23.7381818 Z M0.523636364,16.4072727 C4.86157964,16.4072727 8.37818182,19.9238749 8.37818182,24.2618182 L9.42545455,24.2618182 C9.42545455,19.3454662 5.43998836,15.36 0.523636364,15.36 L0.523636364,16.4072727 Z" id="Shape" fill="#202332" fill-rule="nonzero"></path>
                        <path d="M34.0363636,24.2618182 L41.0181818,24.2618182 C41.7893236,24.2618182 42.4145455,23.6365964 42.4145455,22.8654545 L42.4145455,15.8836364 C37.7873455,15.8836364 34.0363636,19.634688 34.0363636,24.2618182 Z" id="Path" fill="#FFFFFF"></path>
                        <path d="M34.0363636,24.2618182 L33.5127273,24.2618182 L33.5127273,24.7854545 L34.0363636,24.7854545 L34.0363636,24.2618182 Z M42.4145455,15.8836364 L42.9381818,15.8836364 L42.9381818,15.36 L42.4145455,15.36 L42.4145455,15.8836364 Z M41.0181818,23.7381818 L34.0363636,23.7381818 L34.0363636,24.7854545 L41.0181818,24.7854545 L41.0181818,23.7381818 Z M41.8909091,22.8654545 C41.8909091,23.3475491 41.5002764,23.7381818 41.0181818,23.7381818 L41.0181818,24.7854545 C42.07872,24.7854545 42.9381818,23.9259927 42.9381818,22.8654545 L41.8909091,22.8654545 Z M41.8909091,15.8836364 L41.8909091,22.8654545 L42.9381818,22.8654545 L42.9381818,15.8836364 L41.8909091,15.8836364 Z M34.56,24.2618182 C34.56,19.9238749 38.0767418,16.4072727 42.4145455,16.4072727 L42.4145455,15.36 C37.4982982,15.36 33.5127273,19.3454662 33.5127273,24.2618182 L34.56,24.2618182 Z" id="Shape" fill="#202332" fill-rule="nonzero"></path>
                        <rect id="Rectangle" stroke="#202332" stroke-width="1.5" fill="#FFFFFF" fill-rule="nonzero" x="13.0909091" y="4.71272727" width="15.36" height="15.36" rx="7.68"></rect>
                        <rect id="Rectangle" stroke="#202332" stroke-width="1.5" fill="#202332" fill-rule="nonzero" x="24.6109091" y="11.6945455" width="23.3890909" height="20.9454545" rx="10.4727273"></rect>
                        <rect id="Rectangle" stroke="#202332" stroke-width="1.5" fill="#FFFFFF" fill-rule="nonzero" x="24.6109091" y="11.6945455" width="20.9454545" height="20.9454545" rx="10.4727273"></rect>
                        <rect id="Rectangle" fill="#202332" fill-rule="nonzero" x="29.4981818" y="16.5818182" width="11.1709091" height="11.1709091" rx="5.58545455"></rect>
                        <path d="M35.0836364,18.3272727 C35.7151418,18.3272727 36.3368727,18.4830022 36.8936727,18.7807069 C37.4508218,19.0783767 37.9255855,19.5088058 38.2764218,20.0338735 C38.6272582,20.5589411 38.8433455,21.1624495 38.9051345,21.7908829 C38.9669236,22.4193164 38.8730182,23.0532655 38.6314473,23.6369455 C38.3895273,24.2202764 38.0079709,24.7351855 37.5195927,25.1355927 C37.0315636,25.5363491 36.4520727,25.8103855 35.8327855,25.9336145 C35.2134982,26.0568436 34.5732655,26.0250764 33.9689891,25.8418036 C33.3647127,25.6585309 32.8148945,25.3289891 32.3684073,24.8825018 L35.0836364,22.1672727 L35.0836364,18.3272727 Z" id="Path" fill="#FFFFFF" fill-rule="nonzero"></path>
                        <path d="M35.0834042,13.0909091 C35.2922686,13.0909091 35.4615866,13.2602271 35.4615866,13.4690915 L35.4615866,14.9818176 C35.4615866,15.190682 35.2922686,15.36 35.0834042,15.36 C34.8745398,15.36 34.7052218,15.190682 34.7052218,14.9818176 L34.7052218,13.4690915 C34.7052218,13.2602271 34.8745398,13.0909091 35.0834042,13.0909091 Z M28.6657513,15.7491898 C28.8134408,15.6015003 29.0528926,15.6015003 29.200582,15.7491898 L30.2702409,16.8188486 C30.4179303,16.9665381 30.4179303,17.2059899 30.2702409,17.3536793 C30.1225515,17.5013687 29.8830996,17.5013687 29.7354102,17.3536793 L28.6657513,16.2840204 C28.5180619,16.136331 28.5180619,15.8968792 28.6657513,15.7491898 Z M44.16,22.1673199 C44.16,22.3761842 43.990682,22.5455023 43.7818176,22.5455023 L42.2690915,22.5455023 C42.0602271,22.5455023 41.8909091,22.3761842 41.8909091,22.1673199 C41.8909091,21.9584555 42.0602271,21.7891375 42.2690915,21.7891375 L43.7818176,21.7891375 C43.990682,21.7891375 44.16,21.9584555 44.16,22.1673199 Z M41.5016844,15.7493877 C41.6493738,15.8970771 41.6493738,16.136529 41.5016844,16.2842184 L40.4320255,17.3538773 C40.2843361,17.5015667 40.0448843,17.5015667 39.8971949,17.3538773 C39.7495054,17.2061879 39.7495054,16.966736 39.8971949,16.8190466 L40.9668538,15.7493877 C41.1145432,15.6016983 41.353995,15.6016983 41.5016844,15.7493877 Z M35.0834042,28.9745455 C35.2922686,28.9745455 35.4615866,29.1438635 35.4615866,29.3527279 L35.4615866,30.865454 C35.4615866,31.0743183 35.2922686,31.2436364 35.0834042,31.2436364 C34.8745398,31.2436364 34.7052218,31.0743183 34.7052218,30.865454 L34.7052218,29.3527279 C34.7052218,29.1438635 34.8745398,28.9745455 35.0834042,28.9745455 Z M39.8969135,26.9805265 C40.0446029,26.8328371 40.2840548,26.8328371 40.4317442,26.9805265 L41.5014031,28.0501854 C41.6490925,28.1978748 41.6490925,28.4373266 41.5014031,28.585016 C41.3537137,28.7327055 41.1142618,28.7327055 40.9665724,28.585016 L39.8969135,27.5153572 C39.7492241,27.3676677 39.7492241,27.1282159 39.8969135,26.9805265 Z M28.2763636,22.1673199 C28.2763636,22.3761842 28.1070456,22.5455023 27.8981812,22.5455023 L26.3854551,22.5455023 C26.1765908,22.5455023 26.0072727,22.3761842 26.0072727,22.1673199 C26.0072727,21.9584555 26.1765908,21.7891375 26.3854551,21.7891375 L27.8981812,21.7891375 C28.1070456,21.7891375 28.2763636,21.9584555 28.2763636,22.1673199 Z M30.2700335,26.980899 C30.4177229,27.1285884 30.4177229,27.3680402 30.2700335,27.5157297 L29.2003746,28.5853885 C29.0526852,28.733078 28.8132334,28.733078 28.665544,28.5853885 C28.5178545,28.4376991 28.5178545,28.1982473 28.665544,28.0505579 L29.7352028,26.980899 C29.8828923,26.8332096 30.1223441,26.8332096 30.2700335,26.980899 Z" id="Combined-Shape" fill="#202332" fill-rule="nonzero"></path>
                    </g>
                </g>
            </g>
        </g>
    </g>
</svg>