<?xml version="1.0" encoding="UTF-8"?>
<svg width="35px" height="48px" viewBox="0 0 35 48" version="1.1" xmlns="http://www.w3.org/2000/svg" xmlns:xlink="http://www.w3.org/1999/xlink">
    <title>icon-06</title>
    <g id="FINAL" stroke="none" stroke-width="1" fill="none" fill-rule="evenodd">
        <g id="HOMEPAGE" transform="translate(-1320.000000, -1788.000000)">
            <g id="Group-8" transform="translate(776.000000, 1562.000000)">
                <g id="Group-7" transform="translate(0.000000, 216.000000)">
                    <g id="icon-06" transform="translate(544.000000, 10.000000)">
                        <path d="M22.5880352,21.1649201 L18.9691777,21.1649201 C18.6831138,21.1649201 18.4167023,21.0195144 18.2618568,20.7791589 C18.106901,20.5387482 18.0847644,20.2359576 18.2031205,19.9755081 L26.5094072,1.68281979 L12.2096897,1.68281979 L11.3146773,1.68281979 L10.4194993,1.68281979 L6.20074671,1.68281979 L1.88483617,19.8825456 C1.88168958,19.8960152 1.87821177,19.9093745 1.87434753,19.9226785 C1.45193128,21.3803237 1.73247485,22.9122726 2.64404824,24.1256429 C3.16975001,24.8254561 3.85625922,25.3518203 4.63401962,25.6732144 C5.13664638,25.8808895 5.67741868,26.0024473 6.2381746,26.0284481 C6.31418965,26.031926 6.3901495,26.0349069 6.46666138,26.0349069 L9.07916127,26.0349069 L12.0886838,26.0349069 C12.3466492,26.0349069 12.5904274,26.1533734 12.7499099,26.3562458 C12.8678243,26.5060126 12.9295969,26.6895638 12.9295969,26.8764824 C12.9295969,26.9425057 12.9221997,27.009081 12.9064115,27.0745522 L12.7505724,27.7177819 L11.4209438,33.2046665 L9.79448664,39.9165141 L8.84719667,43.8255205 L9.53376109,42.9987947 L27.6615569,21.1649201 L22.5880352,21.1649201 Z" id="Path" fill="#F2C928"></path>
                        <path d="M11.4232071,33.2047769 L12.7527805,27.7178923 L12.9086748,27.0746626 C12.9245734,27.0090258 12.931805,26.9426161 12.931805,26.8764824 C12.931805,26.6896742 12.8700877,26.5059574 12.7521733,26.3561906 C12.5926355,26.1533182 12.3489126,26.0350173 12.090892,26.0350173 L9.08153501,26.0350173 L6.46892472,26.0350173 C6.39241284,26.0350173 6.31639779,26.031926 6.24043794,26.0283929 C5.67962681,26.0023921 5.13890972,25.8809999 4.63622776,25.6732144 C3.85846736,25.3518755 3.17201335,24.8254009 2.64631158,24.1256981 C1.73468298,22.912383 1.45413941,21.3804341 1.87655567,19.9226785 C1.88047511,19.9094297 1.88395292,19.89596 1.88704431,19.882656 L6.20301005,1.68287499 L10.4217626,1.68287499 L11.3168854,1.68287499 L12.211953,1.68287499 L26.5116705,1.68287499 L18.2053286,19.9756185 C18.0870277,20.236068 18.1091643,20.5387482 18.2641202,20.7792693 C18.4190761,21.0196248 18.6853772,21.1650305 18.9714411,21.1650305 L22.5902985,21.1650305 L27.6639307,21.1650305 L9.53602443,42.9987395 L8.84951521,43.8255205 L9.79686039,39.9166245 L11.4232071,33.2047769 Z M34.6313147,0.421532998 C34.4811615,0.160641831 34.2031021,0 33.9021332,0 L27.8178377,0 L11.6221601,0 L5.53786454,0 C5.14796308,0 4.80906954,0.267846792 4.71908803,0.647259612 L0.254293984,19.4748687 C-0.308449256,21.4394465 0.0725092591,23.5017895 1.30078443,25.136472 C2.53325506,26.7770612 4.41695994,27.7178923 6.46892472,27.7178923 L9.08153501,27.7178923 L11.0211057,27.7178923 L6.55912704,46.1313656 L6.28415901,46.8622584 C6.14383202,47.2354332 6.28454544,47.656083 6.62150686,47.869168 C6.76017774,47.9569414 6.9162929,48 7.0715248,48 C7.09001793,48 7.10851106,47.9983439 7.12689379,47.9972398 C7.14323399,47.9977919 7.15940858,48 7.17569357,48 C7.41985812,48 7.65921997,47.8940095 7.82350522,47.6958294 L8.42698855,46.9688009 L33.679222,20.9091076 C33.9144436,20.6663784 33.9814605,20.306618 33.8498004,19.9953813 C33.71803,19.6841999 33.4129209,19.4821003 33.0749106,19.4821003 L29.4560531,19.4821003 L24.051808,19.4821003 L34.629769,1.26388135 C34.780971,1.00354222 34.7814678,0.682479368 34.6313147,0.421532998 Z" id="Shape" fill="#000000"></path>
                    </g>
                </g>
            </g>
        </g>
    </g>
</svg>