<?xml version="1.0" encoding="UTF-8"?>
<svg width="45px" height="48px" viewBox="0 0 45 48" version="1.1" xmlns="http://www.w3.org/2000/svg" xmlns:xlink="http://www.w3.org/1999/xlink">
    <title>icon-08</title>
    <defs>
        <circle id="path-1" cx="13.5" cy="28.5" r="13.5"></circle>
        <filter x="-1.9%" y="-1.9%" width="103.7%" height="107.4%" filterUnits="objectBoundingBox" id="filter-2">
            <feOffset dx="0" dy="1" in="SourceAlpha" result="shadowOffsetOuter1"></feOffset>
            <feComposite in="shadowOffsetOuter1" in2="SourceAlpha" operator="out" result="shadowOffsetOuter1"></feComposite>
            <feColorMatrix values="0 0 0 0 0.125490196   0 0 0 0 0.137254902   0 0 0 0 0.196078431  0 0 0 1 0" type="matrix" in="shadowOffsetOuter1"></feColorMatrix>
        </filter>
    </defs>
    <g id="FINAL" stroke="none" stroke-width="1" fill="none" fill-rule="evenodd">
        <g id="HOMEPAGE" transform="translate(-1313.000000, -1997.000000)">
            <g id="Group-8" transform="translate(776.000000, 1562.000000)">
                <g id="Group-6-Copy-2" transform="translate(104.000000, 433.000000)">
                    <g id="icon-08" transform="translate(433.000000, 2.000000)">
                        <polygon id="Path" fill="#F2C928" points="4.19316983 35.3126907 23.1921048 46.2820611 23.1921048 46.2815747 23.1921048 24.3435635 4.19316983 13.3743876"></polygon>
                        <polygon id="Path" fill="#F2C928" points="4.7859852 12.343527 23.7851148 23.3125569 30.29407 19.5545413 12.0677697 8.13948931"></polygon>
                        <polygon id="Path" fill="#F2C928" points="23.7851634 1.37439974 18.0971904 4.65818249 36.3236366 16.0736236 42.7842443 12.3435756"></polygon>
                        <polygon id="Path" fill="#FFFFFF" points="16.9286806 5.33227408 13.2332638 7.4657382 31.45971 18.8808389 35.1549809 16.7475207"></polygon>
                        <polygon id="Path" fill="#FFFFFF" points="31.9973684 19.9472548 31.9973684 28.6595201 35.7670088 26.2471098 35.7670088 17.7708908"></polygon>
                        <path d="M12.0674779,8.13948931 L30.2937781,19.5547359 L23.7849202,23.3127029 L4.78564473,12.3435756 L12.0674779,8.13948931 Z M31.4608773,18.8808389 L13.234577,7.4657382 L16.929848,5.33227408 L35.1562942,16.7475207 L31.4608773,18.8808389 Z M35.7645282,26.2471584 L31.9946933,28.6595687 L31.9946933,19.9473034 L35.7645282,17.7709881 L35.7645282,26.2471584 Z M4.19059195,13.3745335 L23.189527,24.3435635 L23.189527,46.2820611 L4.19059195,35.3128853 L4.19059195,13.3745335 Z M23.7849202,1.37439974 L42.7837579,12.3435756 L36.3232474,16.0736236 L18.0969472,4.65818249 L23.7849202,1.37439974 Z M44.2721195,11.8283885 C44.2721195,11.8283885 44.2721195,11.8282426 44.2721195,11.8282426 C44.2721195,11.828048 44.2716331,11.828048 44.2716331,11.828048 L23.7849202,0 L16.9550431,3.94299073 L16.1202961,4.42505449 L3,11.9999878 L3,36.0001581 L23.4864697,47.827817 C23.4868101,47.827817 23.4870047,47.8283034 23.4871506,47.8283034 C23.4874911,47.8287898 23.4876857,47.8287898 23.4878316,47.8287898 L23.7849202,48 L24.0818629,47.8287898 C24.0820575,47.8287898 24.0822034,47.8287898 24.0825439,47.8283034 L43.6179213,36.5496359 L44.2721195,36.171952 L44.5693054,36.0001581 L44.5693054,35.6566189 L44.5693054,12.3435756 L44.5693054,11.9999878 L44.2721195,11.8283885 Z" id="Shape" fill="#202332"></path>
                        <g id="Oval">
                            <use fill="black" fill-opacity="1" filter="url(#filter-2)" xlink:href="#path-1"></use>
                            <circle stroke="#202332" stroke-width="2" stroke-linejoin="square" fill="#FFFFFF" fill-rule="evenodd" cx="13.5" cy="28.5" r="12.5"></circle>
                        </g>
                        <path d="M13.5,19 C8.26250606,19 4,23.2617 4,28.5 C4,33.7383 8.26250606,38 13.5,38 C18.7374939,38 23,33.7383 23,28.5 C23,23.2617 18.7374939,19 13.5,19 Z M19.2531265,28.9058614 C19.0433209,29.3124979 18.5347784,29.480175 18.111888,29.2696619 L16.2888803,28.3564937 L14.5065786,28.9256959 L15.6083548,30.4158445 L17.6299175,30.7304753 C18.0920439,30.8020908 18.4084201,31.2293397 18.3354885,31.6834792 C18.2626134,32.1383965 17.8120769,32.4525827 17.3648761,32.376078 L15.8327467,32.138452 L15.5909417,33.6432682 C15.5168228,34.1022413 15.073636,34.4092604 14.6203293,34.3350336 C14.1565633,34.263418 13.8418267,33.8361691 13.9147583,33.3811963 L14.2357705,31.3940722 L13.1346161,29.9048682 L12.0334618,31.3941278 L12.354474,33.3812518 C12.427349,33.8361691 12.1126689,34.2634735 11.648903,34.3350891 C11.1959354,34.4092604 10.7525225,34.1029635 10.6782906,33.6433237 L10.4364855,32.1385076 L8.90435617,32.3761335 C8.45054059,32.4526383 8.00661884,32.1392854 7.93374376,31.6835347 C7.86086868,31.2293953 8.1772449,30.8021464 8.63931475,30.7305308 L10.6608774,30.4159001 L11.7626537,28.9257515 L9.98035193,28.3565493 L8.15734418,29.2697174 C7.73513231,29.4799528 7.22625054,29.3131646 7.01610571,28.9059169 C6.80245565,28.4957247 6.96974608,27.9935822 7.3854563,27.7852359 L8.76686028,27.0934705 L8.06456838,25.7359413 C7.85091832,25.325749 8.01820875,24.8236066 8.43555852,24.6152602 C8.84962919,24.4101919 9.36309039,24.5672572 9.5751009,24.9790607 L10.5038766,26.7712837 L12.2865741,27.3405414 L12.2865741,25.4990932 L10.8389663,24.0765044 C10.507721,23.7509841 10.507721,23.2235623 10.8389663,22.898042 C11.1702115,22.5725216 11.706909,22.5725216 12.0381543,22.898042 L13.1346161,23.9755536 L14.2311345,22.8979864 C14.5623797,22.5724661 15.0990773,22.5724661 15.4303225,22.8979864 C15.7615677,23.2235067 15.7615677,23.7509285 15.4303225,24.0764488 L13.9826582,25.4990932 L13.9826582,27.3405414 L15.7652991,26.7712281 L16.6940748,24.9790052 C16.9060853,24.5672017 17.4228821,24.4093029 17.8336172,24.6152047 C18.2510235,24.823551 18.4183139,25.3256935 18.2046073,25.7358857 L17.5023154,27.0934149 L18.8837194,27.7851803 C19.2994862,27.9935266 19.4667766,28.4956691 19.2531265,28.9058614 L19.2531265,28.9058614 Z" id="Shape" fill="#202332" fill-rule="nonzero"></path>
                    </g>
                </g>
            </g>
        </g>
    </g>
</svg>