<?xml version="1.0" encoding="UTF-8"?>
<svg width="48px" height="41px" viewBox="0 0 48 41" version="1.1" xmlns="http://www.w3.org/2000/svg" xmlns:xlink="http://www.w3.org/1999/xlink">
    <title>icon-07</title>
    <g id="FINAL" stroke="none" stroke-width="1" fill="none" fill-rule="evenodd">
        <g id="HOMEPAGE" transform="translate(-1314.000000, -1921.000000)">
            <g id="Group-8" transform="translate(776.000000, 1562.000000)">
                <g id="Group-6-Copy" transform="translate(0.000000, 353.000000)">
                    <g id="icon-07" transform="translate(538.000000, 6.000000)">
                        <path d="M4.63196459,0.926370545 C2.58541394,0.926370545 0.926370545,2.58541394 0.926370545,4.63196459 C0.926370545,6.67851525 2.58541394,8.33755864 4.63196459,8.33755864 L8.33755864,8.33755864 L32.42392,8.33755864 L36.129514,8.33755864 L36.129514,1.67906759 C36.129514,1.26336985 35.7925147,0.926370545 35.3769288,0.926370545 L31.6713348,0.926370545 L8.33755864,0.926370545 L4.63196459,0.926370545 Z" id="Path" fill="#000000"></path>
                        <path d="M4.63196459,1.85274109 C3.09703762,1.85274109 1.85274109,3.09703762 1.85274109,4.63196459 C1.85274109,6.16689157 3.09703762,7.4111881 4.63196459,7.4111881 L35.2030875,7.4111881 L35.2030875,1.85274109 L4.63196459,1.85274109 Z M0,4.63196459 C0,2.07379026 2.07379026,0 4.63196459,0 L35.3769288,0 C36.3042502,0 37.0559405,0.751746174 37.0559405,1.67906759 L37.0559405,9.26392919 L4.63196459,9.26392919 C2.07379026,9.26392919 0,7.19013892 0,4.63196459 Z" id="Shape" fill="#202332"></path>
                        <path d="M10.1903557,4.63196459 L39.4587875,4.63196459 C39.6666923,4.63196459 39.8351081,4.80043628 39.8351081,5.00834108 L39.8351081,13.8959497 L10.1903557,13.8959497 L10.1903557,4.63196459 Z" id="Path" fill="#000000" fill-rule="nonzero"></path>
                        <path d="M9.26392919,3.70559405 L39.4587875,3.70559405 C40.17826,3.70559405 40.7615345,4.2888126 40.7615345,5.00828515 L40.7615345,14.8223762 L9.26392919,14.8223762 L9.26392919,3.70559405 Z M11.1167821,5.55833514 L11.1167821,12.9695232 L38.9086816,12.9695232 L38.9086816,5.55833514 L11.1167821,5.55833514 Z" id="Shape" fill="#202332"></path>
                        <polygon id="Path" fill="#FFFFFF" fill-rule="nonzero" points="6.48476162 4.63196459 36.129514 4.63196459 36.129514 13.8959497 6.48476162 13.8959497"></polygon>
                        <path d="M5.55833514,3.70559405 L37.0559405,3.70559405 L37.0559405,14.8223762 L5.55833514,14.8223762 L5.55833514,3.70559405 Z M7.4111881,5.55833514 L7.4111881,12.9695232 L35.2030875,12.9695232 L35.2030875,5.55833514 L7.4111881,5.55833514 Z" id="Shape" fill="#202332"></path>
                        <path d="M43.5409818,38.3209883 L43.5409818,10.3055787 C43.5409818,9.889825 43.2037028,9.55282569 42.7881169,9.55282569 L5.70214016,9.55282569 C3.06454026,9.55282569 0.926370545,7.34966125 0.926370545,4.63196459 L0.926370545,36.8069246 C0.926370545,38.4792242 2.24215008,39.8351081 3.86528418,39.8351081 L42.0710495,39.8351081 C42.8826445,39.8351081 43.5409818,39.1571941 43.5409818,38.3209883 Z" id="Path" fill="#000000" fill-rule="nonzero"></path>
                        <path d="M1.85274109,4.63196459 C1.85274109,6.86438225 3.60211708,8.62639921 5.70214016,8.62639921 L42.7881169,8.62639921 C43.7154943,8.62639921 44.4672405,9.37825725 44.4672405,10.3055787 L44.4672405,38.3209883 C44.4672405,39.642585 43.4207248,40.7615345 42.0710495,40.7615345 L3.86528418,40.7615345 C1.70457326,40.7615345 0,38.964671 0,36.8069246 L0,4.63196459 L1.85274109,4.63196459 Z M5.70214016,10.4791962 C4.21128878,10.4791962 2.86334748,9.89631328 1.85274109,8.94622694 L1.85274109,36.8069246 C1.85274109,37.9940011 2.77978284,38.9086816 3.86528418,38.9086816 L42.0710495,38.9086816 C42.3451236,38.9086816 42.6141638,38.6719151 42.6141638,38.3209883 L42.6141638,10.4791962 L5.70214016,10.4791962 Z" id="Shape" fill="#202332"></path>
                        <path d="M41.6879051,38.3209883 L41.6879051,9.55282569 L5.83285673,9.55282569 C3.12310263,9.55282569 0.926370545,7.34966125 0.926370545,4.63196459 L0.926370545,36.8069246 C0.926370545,38.4792242 2.27817125,39.8351081 3.94571654,39.8351081 L40.17826,39.8351081 C41.0120047,39.8351081 41.6879051,39.1571941 41.6879051,38.3209883 Z" id="Path" fill="#F2C928" fill-rule="nonzero"></path>
                        <path d="M1.85274109,4.63196459 C1.85274109,6.84061051 3.63729925,8.62639921 5.83285673,8.62639921 L42.6141638,8.62639921 L42.6141638,38.3209883 C42.6141638,39.6663008 41.5261454,40.7615345 40.17826,40.7615345 L3.94571654,40.7615345 C1.76397463,40.7615345 0,38.9883868 0,36.8069246 L0,4.63196459 L1.85274109,4.63196459 Z M5.83285673,10.4791962 C4.29362288,10.4791962 2.8946143,9.88188244 1.85274109,8.90657009 L1.85274109,36.8069246 C1.85274109,37.9702853 2.79236787,38.9086816 3.94571654,38.9086816 L40.17826,38.9086816 C40.497864,38.9086816 40.7615345,38.6481993 40.7615345,38.3209883 L40.7615345,10.4791962 L5.83285673,10.4791962 Z" id="Shape" fill="#202332"></path>
                        <path d="M27.7918994,23.5860921 C27.7918994,19.7693023 30.8860844,18.5279702 34.7028743,18.5279702 L40.7615345,18.5279702 L40.7615345,29.6447524 L33.6108287,29.6447524 C30.3971698,29.6447524 27.7918994,27.0394821 27.7918994,23.8258231 L27.7918994,23.5860921 Z M34.7028743,18.5279702 C31.9093877,18.5279702 29.6447524,20.7926056 29.6447524,23.5860921 L29.6447524,23.8258231 C29.6447524,26.0161788 31.4204731,25.9391583 33.6108287,25.9391583 L38.9086816,25.9391583 L38.9086816,18.5279702 L34.7028743,18.5279702 Z" id="Shape" fill="#202332" opacity="0.2"></path>
                        <path d="M30.5711229,22.2335643 C30.5711229,19.67539 32.6449691,17.6015438 35.2030875,17.6015438 L46.493711,17.6015438 C46.9092968,17.6015438 47.2460165,17.9385431 47.2460165,18.3541289 L47.2460165,26.1129437 C47.2460165,26.5285296 46.9092968,26.8655289 46.493711,26.8655289 L35.2030875,26.8655289 C32.6449691,26.8655289 30.5711229,24.7916827 30.5711229,22.2335643 Z" id="Path" fill="#000000" fill-rule="nonzero"></path>
                        <path d="M29.8194886,22.2334524 C29.8194886,19.2595244 32.2301663,16.8488467 35.2040943,16.8488467 L46.4948296,16.8488467 C47.3260014,16.8488467 48,17.5227335 48,18.354073 L48,26.1128318 C48,26.9441714 47.3260014,27.6180581 46.4948296,27.6180581 L35.2040943,27.6180581 C32.2301663,27.6180581 29.8194886,25.2073804 29.8194886,22.2334524 Z M35.2040943,18.3542408 C33.0617296,18.3542408 31.3249386,20.0910318 31.3249386,22.2334524 C31.3249386,24.3758172 33.0617296,26.1128318 35.2040943,26.1128318 L46.4948296,26.1128318 L46.4948296,18.3542408 L35.2040943,18.3542408 Z" id="Shape" fill="#202332"></path>
                        <path d="M28.7183259,22.2335643 C28.7183259,19.67539 30.7921721,17.6015438 33.3503464,17.6015438 L45.3934991,17.6015438 L45.3934991,26.8655289 L33.3503464,26.8655289 C30.7921721,26.8655289 28.7183259,24.7916827 28.7183259,22.2335643 Z" id="Path" fill="#FFFFFF" fill-rule="nonzero"></path>
                        <path d="M27.979836,22.2336762 C27.979836,19.2662364 30.3854797,16.8605928 33.3529194,16.8605928 L46.1374146,16.8605928 L46.1374146,27.6068155 L33.3529194,27.6068155 C30.3854797,27.6068155 27.979836,25.2011159 27.979836,22.2336762 Z M33.3529194,18.3428304 C31.2040664,18.3428304 29.4620736,20.0848231 29.4620736,22.2336762 C29.4620736,24.3825851 31.2040664,26.1245779 33.3529194,26.1245779 L44.655177,26.1245779 L44.655177,18.3428304 L33.3529194,18.3428304 Z" id="Shape" fill="#202332"></path>
                    </g>
                </g>
            </g>
        </g>
    </g>
</svg>