<?xml version="1.0" encoding="UTF-8"?>
<svg width="168px" height="58px" viewBox="0 0 168 58" version="1.1" xmlns="http://www.w3.org/2000/svg" xmlns:xlink="http://www.w3.org/1999/xlink">
    <title>rashof-logo</title>
    <defs>
        <linearGradient x1="67618.9858%" y1="11298.9878%" x2="86002.0884%" y2="11298.9878%" id="linearGradient-1">
            <stop stop-color="#D9AD6A" offset="0%"></stop>
            <stop stop-color="#C38F52" offset="28%"></stop>
            <stop stop-color="#C99558" offset="31%"></stop>
            <stop stop-color="#EFBC79" offset="52%"></stop>
            <stop stop-color="#FECB86" offset="63%"></stop>
            <stop stop-color="#EDBA77" offset="76%"></stop>
            <stop stop-color="#C38F52" offset="100%"></stop>
        </linearGradient>
        <linearGradient x1="74693.855%" y1="1667.00548%" x2="78925.8381%" y2="1667.00548%" id="linearGradient-2">
            <stop stop-color="#D9AD6A" offset="0%"></stop>
            <stop stop-color="#C38F52" offset="28%"></stop>
            <stop stop-color="#C99558" offset="31%"></stop>
            <stop stop-color="#EFBC79" offset="52%"></stop>
            <stop stop-color="#FECB86" offset="63%"></stop>
            <stop stop-color="#EDBA77" offset="76%"></stop>
            <stop stop-color="#C38F52" offset="100%"></stop>
        </linearGradient>
    </defs>
    <g id="FINAL" stroke="none" stroke-width="1" fill="none" fill-rule="evenodd">
        <g id="HOMEPAGE" transform="translate(-942.000000, -5584.000000)" fill-rule="nonzero">
            <g id="Group-21" transform="translate(190.000000, 5407.000000)">
                <g id="Group-30" transform="translate(0.000000, 177.000000)">
                    <g id="rashof-logo" transform="translate(752.577781, 0.000000)">
                        <path d="M157.996478,12.622471 C156.800278,13.8572996 156.202178,15.5245399 156.203634,17.6244546 L156.203634,34.7263228 L160.8411,34.7263228 L160.8411,22.315747 L166.579943,22.315747 L166.579943,18.4865939 L160.8411,18.4865939 L160.8411,17.6854316 C160.838183,17.2795988 160.884864,16.8749331 160.981143,16.4806247 C161.064294,16.1322679 161.223301,15.8062305 161.447953,15.5255611 C161.690111,15.2399318 162.00229,15.0209689 162.353856,14.8896786 C162.808995,14.7258576 163.290393,14.6479587 163.773249,14.6603583 C164.228389,14.6648805 164.68207,14.7105404 165.128456,14.7969002 C165.596725,14.8829682 166.051865,15.0233029 166.486581,15.2148408 L167.389566,11.5425357 C166.842524,11.3306041 166.279434,11.1598101 165.706134,11.0315978 C164.919851,10.8507382 164.113145,10.7630363 163.304981,10.7703302 C160.957803,10.7703302 159.185384,11.3877008 157.987725,12.622471 L157.996478,12.622471 Z M147.78939,29.956548 C147.52681,30.3569832 147.162115,30.6827289 146.731774,30.901546 C146.302893,31.120509 145.822954,31.2249577 145.341557,31.2048265 C144.856366,31.2240824 144.375114,31.119342 143.943607,30.9006708 C143.5121,30.6819996 143.144779,30.3568374 142.877239,29.956548 C142.290663,29.1234384 141.997448,27.9940505 141.997448,26.5774286 C141.997448,25.1606609 142.290663,24.0401716 142.877239,23.227339 C143.149593,22.83376 143.518664,22.5154541 143.949588,22.3021804 C144.380658,22.0887608 144.85943,21.9875214 145.341557,22.0079443 C145.820037,21.986792 146.297058,22.0877396 146.725939,22.3011592 C147.154821,22.5147247 147.520975,22.8336142 147.78939,23.227339 C148.361232,24.0401716 148.645695,25.1568681 148.645695,26.5774286 C148.645695,27.9940505 148.35248,29.1234384 147.78939,29.956548 Z M152.793008,23.0878796 C152.432689,22.0910948 151.871058,21.1774606 151.141668,20.4025563 C150.428324,19.6507008 149.561809,19.0569771 148.599014,18.6607723 C146.517334,17.8364154 144.19408,17.8364154 142.111816,18.6607723 C141.147417,19.0597488 140.277546,19.6530348 139.5572,20.4025563 C138.818327,21.1762935 138.244735,22.0896361 137.870849,23.0878796 C137.454805,24.2025338 137.248971,25.3834167 137.263705,26.5715935 C137.247513,27.7647302 137.446198,28.9513023 137.850281,30.0755845 C138.211475,31.0812678 138.774126,32.00453 139.504392,32.7899375 C140.215402,33.5436894 141.081626,34.1377049 142.044275,34.5317215 C143.088324,34.9536009 144.207501,35.1629359 145.334263,35.147181 C146.47357,35.1646864 147.602667,34.9554973 148.657365,34.5317215 C149.62016,34.1368296 150.486676,33.54296 151.197102,32.7899375 C151.925033,32.0083229 152.477911,31.0833101 152.819266,30.0755845 C153.205843,28.9475094 153.396943,27.7626879 153.382355,26.5715935 C153.399861,25.3850214 153.201466,24.2050138 152.795925,23.0878796 L152.793008,23.0878796 Z M125.104039,34.7263228 L125.104039,22.3767241 C125.3974,22.29547 125.719937,22.2199052 126.083611,22.1474038 C126.470042,22.0721307 126.863037,22.0352235 127.256762,22.0369741 C128.29804,22.0369741 129.016489,22.3476943 129.394897,22.9631539 C129.773158,23.5786134 129.981472,24.6295189 129.981472,26.1129529 L129.981472,34.7263228 L134.627105,34.7263228 L134.627105,25.5497177 C134.638046,24.5311971 134.527762,23.5148647 134.298588,22.5218727 C134.105153,21.6676108 133.722515,20.8664485 133.178244,20.1761536 C132.615592,19.4941736 131.884014,18.9681374 131.054843,18.6492479 C129.993872,18.2585865 128.86638,18.0752178 127.734804,18.1092074 C127.258513,18.1113955 126.783242,18.1570554 126.315411,18.2456033 C125.90987,18.3175212 125.509143,18.4145301 125.115856,18.5359007 L125.115856,10.7703302 L120.467305,11.510603 L120.467305,34.7349296 L125.104039,34.7263228 Z M108.354467,31.1613549 C107.525442,30.9857177 106.712172,30.7429766 105.923117,30.4356115 L105.142961,34.1689228 C105.797516,34.4231882 106.470014,34.6298974 107.154911,34.787154 C108.346298,35.0576119 109.566859,35.1814624 110.788734,35.1559337 C113.011915,35.1559337 114.731526,34.7455787 115.947711,33.9250147 C117.163897,33.1044506 117.772938,31.8929333 117.774834,30.2904628 C117.784462,29.6871112 117.705396,29.0858018 117.540262,28.5050613 C117.379213,27.9832555 117.101461,27.5039002 116.727867,27.1028814 C116.270831,26.6328623 115.738668,26.2404503 115.152822,25.9416921 C114.339406,25.5128106 113.495355,25.1431556 112.627673,24.8356446 C112.129061,24.6420644 111.718561,24.4708036 111.395878,24.3217162 C111.128921,24.1991787 110.87276,24.0544676 110.630456,23.8891878 C110.471449,23.7857602 110.342931,23.642508 110.257884,23.4740188 C110.193406,23.3164705 110.161458,23.1476896 110.164084,22.9775958 C110.164084,22.1764335 110.891432,21.7757065 112.346128,21.7757065 C113.064723,21.7672455 113.782006,21.8393093 114.484117,21.9905849 C115.079591,22.1226045 115.667042,22.2874467 116.243844,22.4840903 L117.056239,18.9046804 C116.34698,18.6499773 115.617006,18.4558136 114.874341,18.3240857 C113.927738,18.1462604 112.966402,18.0577124 112.003023,18.059861 C110.008578,18.059861 108.444473,18.5030781 107.310417,19.3894332 C106.753017,19.8113125 106.306193,20.3595223 106.007726,20.9881108 C105.709114,21.6165535 105.567466,22.3068485 105.594746,23.0007904 C105.575636,23.6852503 105.692192,24.3667925 105.937851,25.0069055 C106.154334,25.5465084 106.483143,26.0351999 106.902688,26.4410327 C107.347908,26.8643708 107.858919,27.2141864 108.416173,27.4773504 C109.061538,27.787633 109.722219,28.0656766 110.395738,28.31046 C111.119439,28.5623914 111.819216,28.8771962 112.4869,29.2510817 C112.94452,29.541379 113.173257,29.8550168 113.173257,30.2236507 C113.194701,30.4179603 113.155459,30.6141663 113.060493,30.785573 C112.965526,30.9568338 112.819502,31.0951262 112.642406,31.1816319 C112.061812,31.3823601 111.446498,31.46624 110.832789,31.4284576 C110.004639,31.4264153 109.178969,31.3388885 108.3692,31.16719 L108.354467,31.1613549 Z M93.9366088,18.132402 C93.4057586,18.1847722 92.9013123,18.2456033 92.423124,18.3182506 C91.9450816,18.390752 91.5052592,18.472152 91.0975301,18.5649304 C90.6899468,18.6578547 90.3555943,18.7449439 90.0857199,18.8263439 L90.6722955,22.5306254 C91.3188271,22.3046603 91.9870945,22.1450697 92.6665945,22.0544794 C93.4433951,21.9399652 94.2276356,21.882781 95.0128971,21.8832186 C96.1860485,21.8832186 97.0306824,22.118374 97.5058073,22.5943741 C97.7491319,22.8428045 97.9383357,23.1377699 98.0618944,23.4613274 C98.185599,23.784885 98.2408868,24.1300325 98.2244026,24.4756176 L98.2244026,24.908146 C97.8509548,24.8118665 97.4705048,24.7449085 97.0864079,24.7078554 C96.55264,24.65213 96.0161006,24.6260179 95.4792693,24.6295189 C94.6099819,24.6279143 93.7430286,24.7164622 92.8924137,24.8937041 C92.1107991,25.0487725 91.3618611,25.3355687 90.6781306,25.7414015 C90.0374342,26.1291454 89.506584,26.67152 89.1354702,27.3176139 C88.7267199,28.0538605 88.5242411,28.884636 88.5488945,29.7243101 C88.5216153,30.5841154 88.6920009,31.4388149 89.0475057,32.2237848 C89.3681457,32.8911769 89.8632558,33.4615601 90.4816329,33.8757079 C91.1577777,34.3200525 91.9148848,34.6296057 92.7106496,34.787154 C93.6594405,34.9854023 94.6269038,35.0827029 95.5965553,35.0774513 C97.0362258,35.0953943 98.475167,34.9983854 99.8990827,34.787154 C101.072234,34.589781 102.010813,34.4214377 102.676455,34.276289 L102.676455,24.6961852 C102.686958,23.7686925 102.571569,22.8441174 102.33335,21.9471132 C102.124307,21.1619975 101.7211,20.4406305 101.160199,19.8482197 C100.548094,19.235386 99.7940505,18.7799547 98.9635667,18.5214588 C97.8527053,18.1836052 96.6937041,18.0266404 95.5320772,18.056983 C94.9894108,18.056983 94.455643,18.0830952 93.9247927,18.1353195 L93.9366088,18.132402 Z M93.8954712,31.1003778 C93.4066338,30.8255436 93.1622881,30.326203 93.1622881,29.602356 C93.1497426,29.2769021 93.23654,28.9550951 93.4115937,28.6792397 C93.5843133,28.4289129 93.8212193,28.2284765 94.0978041,28.098645 C94.4171312,27.9483906 94.7587776,27.8503606 95.1097602,27.8083477 C95.8605945,27.7174657 96.6200357,27.7174657 97.371016,27.8083477 C97.6534359,27.8359186 97.934397,27.8774939 98.2127324,27.9330734 L98.2127324,31.4167873 C97.8821727,31.4646353 97.5492789,31.4946862 97.2155099,31.5067941 C96.7990281,31.5270711 96.3619774,31.5387414 95.9045038,31.5387414 C95.2095408,31.5737521 94.5173494,31.4297705 93.8954712,31.1206549 L93.8954712,31.1003778 Z M80.8706029,17.8537749 C81.66841,18.2979736 82.0701582,19.043994 82.0701582,20.0919819 C82.0701582,21.1399699 81.6742451,21.95572 80.8970068,22.4145065 C80.1197686,22.8731471 78.7970922,23.0937147 76.967052,23.0937147 L75.5826692,23.0937147 L75.5826692,17.2876221 C75.8319748,17.2644275 76.0960141,17.247068 76.3775587,17.2237275 C76.6591034,17.2005329 76.9641344,17.1946978 77.3278084,17.1946978 C78.8919129,17.1946978 80.0729417,17.4154113 80.8706029,17.8566924 L80.8706029,17.8537749 Z M74.0077697,13.2117892 C72.9028893,13.2907092 71.8039898,13.4361351 70.7170524,13.6472352 L70.7170524,34.7320121 L75.5826692,34.7320121 L75.5826692,26.9170328 L77.9846973,26.9170328 C78.4011791,27.4105382 78.8186822,27.9602067 79.2370604,28.5660383 C79.6535423,29.1756627 80.0758593,29.8172344 80.5040114,30.4965885 C80.9323093,31.1757968 81.3486453,31.875428 81.7563745,32.595482 L82.9617649,34.7263228 L88.3993695,34.7263228 C88.0267969,33.9452917 87.6192136,33.147047 87.1850805,32.3342144 C86.7510933,31.521236 86.30529,30.7374332 85.8272476,29.9884953 C85.3492052,29.2395573 84.8857506,28.5165857 84.4077082,27.8257072 C83.9296658,27.1348287 83.4720463,26.5252043 83.0351415,25.9880813 C84.2290076,25.5450496 85.2742239,24.7809403 86.0530668,23.7818215 C86.7510933,22.8470349 87.1000336,21.6248686 87.1000336,20.1239292 C87.1000336,17.7144613 86.2368732,15.9386877 84.5104063,14.7969002 C82.7837936,13.6549667 80.2997821,13.0840584 77.057934,13.0840584 C76.1781434,13.0840584 75.148682,13.127603 74.0165224,13.2088862" id="Shape" fill="#202332"></path>
                        <path d="M164.315916,47.0893424 L164.315916,44.418461 C164.750632,43.7585087 165.153256,43.1092055 165.525245,42.4705513 C165.895775,41.8318972 166.247341,41.2174588 166.579943,40.6270903 L165.882646,40.6270903 C165.612772,41.1767588 165.319557,41.7322625 165.003001,42.2934554 C164.679152,42.8566905 164.353844,43.3936677 164.016866,43.9046785 C163.671135,43.3936677 163.338533,42.8566905 163.020518,42.2934554 C162.702504,41.7302202 162.409289,41.1757377 162.139415,40.6270903 L161.395437,40.6270903 C161.71491,41.2251903 162.066476,41.8406499 162.442841,42.4705513 C162.817748,43.1004528 163.227665,43.7595298 163.67697,44.438884 L163.67697,47.0979492 L164.315916,47.0893424 Z M159.036589,47.0893424 L159.036589,46.5405491 L155.658053,46.5405491 L155.658053,43.962738 L158.450159,43.962738 L158.450159,43.4197798 L155.658053,43.4197798 L155.658053,41.1700484 L158.787137,41.1700484 L158.787137,40.6183376 L155.013272,40.6183376 L155.013272,47.0893424 L159.036589,47.0893424 Z M151.429048,47.0893424 L151.429048,40.6183376 L150.798855,40.6183376 L150.798855,45.8845355 C150.601919,45.5449314 150.352468,45.1412868 150.047583,44.6826462 C149.742698,44.2240056 149.411554,43.7507772 149.059988,43.2689419 C148.706963,42.7869608 148.346645,42.3108148 147.980491,41.8463391 C147.612878,41.3818634 147.267147,40.9754471 146.947674,40.6183376 L146.437101,40.6183376 L146.437101,47.0893424 L147.07167,47.0893424 L147.07167,41.6374417 C147.249642,41.8521742 147.45533,42.1019175 147.687276,42.3951324 C147.919222,42.6883473 148.152627,42.9989216 148.396243,43.3326906 C148.63986,43.6666055 148.880558,44.0091272 149.121257,44.3633191 C149.361956,44.717511 149.599737,45.0571152 149.824389,45.3881125 C150.0505,45.7191098 150.253271,46.0296842 150.435618,46.3228991 C150.616507,46.616114 150.769679,46.874464 150.892217,47.0893424 L151.429048,47.0893424 Z M142.267031,45.0223962 C142.164332,45.3404104 142.001095,45.6359593 141.785925,45.8932882 C141.580966,46.1331117 141.324513,46.3245037 141.03509,46.4534599 C140.723349,46.5838749 140.388267,46.6509788 140.049684,46.6509788 C139.711247,46.6509788 139.376165,46.5838749 139.064278,46.4534599 C138.775002,46.3245037 138.518402,46.1331117 138.313444,45.8932882 C138.098419,45.6359593 137.935182,45.3404104 137.832484,45.0223962 C137.605643,44.2565364 137.605643,43.4423909 137.832484,42.676677 C137.935182,42.3586628 138.098419,42.062968 138.313444,41.805785 C138.517235,41.5661074 138.774126,41.37632 139.064278,41.2513025 C139.69593,40.9957241 140.403584,40.9957241 141.03509,41.2513025 C141.325242,41.37632 141.582279,41.5661074 141.785925,41.805785 C142.001095,42.062968 142.164332,42.3586628 142.267031,42.676677 C142.493725,43.4423909 142.493725,44.2565364 142.267031,45.0223962 Z M142.871112,42.3892972 C142.724796,41.9955724 142.498247,41.6358371 142.205324,41.3325566 C141.929615,41.0523248 141.596721,40.8336536 141.228671,40.6909849 C140.472147,40.4111908 139.639037,40.4111908 138.882368,40.6909849 C138.514463,40.8336536 138.18157,41.0523248 137.90586,41.3325566 C137.612937,41.6358371 137.386388,41.9955724 137.240073,42.3892972 C137.068374,42.8539189 136.984786,43.3461114 136.993685,43.8407839 C136.984057,44.3402704 137.067645,44.8372769 137.240073,45.3068584 C137.38493,45.7020421 137.61177,46.0630903 137.90586,46.3663707 C138.18084,46.6474778 138.51388,46.8664407 138.882368,47.0079424 C139.638308,47.2915294 140.472876,47.2915294 141.228671,47.0079424 C141.597159,46.8664407 141.930344,46.6474778 142.205324,46.3663707 C142.499414,46.0630903 142.726255,45.7020421 142.871112,45.3068584 C143.04354,44.8372769 143.127128,44.3402704 143.1175,43.8407839 C143.126398,43.3461114 143.04281,42.8539189 142.871112,42.3892972 Z M133.019675,43.4285325 L129.470899,43.4285325 L129.470899,40.6183376 L128.831516,40.6183376 L128.831516,47.0893424 L129.470899,47.0893424 L129.470899,43.9800975 L133.019675,43.9800975 L133.019675,47.0893424 L133.661976,47.0893424 L133.661976,40.6183376 L133.019675,40.6183376 L133.019675,43.4285325 Z M118.809839,46.5405491 L118.809839,40.6183376 L118.167684,40.6183376 L118.167684,47.0893424 L121.886553,47.0893424 L121.886553,46.5405491 L118.809839,46.5405491 Z M113.085,42.9814163 C113.313737,43.5358988 113.551227,44.1427515 113.79178,44.772653 L110.999674,44.772653 C111.240226,44.1339988 111.471881,43.5358988 111.694782,42.9843338 C111.917684,42.4327689 112.152402,41.8841215 112.386974,41.3469985 C112.623588,41.881204 112.856264,42.4260585 113.085,42.9814163 Z M115.346256,47.0893424 C115.082217,46.4177198 114.84181,45.7907359 114.624743,45.208099 C114.407677,44.6256079 114.191631,44.0740429 113.976607,43.5534041 C113.761437,43.0367041 113.551373,42.5373635 113.345976,42.0553824 C113.140726,41.5735471 112.921763,41.0896696 112.689087,40.6038957 L112.122935,40.6038957 C111.890259,41.0857309 111.670421,41.5696084 111.463128,42.0553824 C111.251897,42.5344459 111.043729,43.0337865 110.82958,43.5534041 C110.615431,44.0730218 110.401428,44.6216692 110.181444,45.2051814 C109.961459,45.7886936 109.72397,46.4158234 109.477582,47.0864248 L110.146287,47.0864248 C110.263573,46.7729329 110.375024,46.4651302 110.477722,46.1719153 C110.580274,45.8787004 110.688807,45.5913206 110.797341,45.3010233 L113.991195,45.3010233 C114.088058,45.5913206 114.187693,45.8642585 114.284556,46.1574734 C114.381273,46.4506883 114.50454,46.7583451 114.630578,47.0747546 L115.346256,47.0893424 Z M104.697012,41.1728201 C104.918747,41.2085602 105.131729,41.2852921 105.324579,41.3993687 C105.507365,41.5071726 105.659807,41.6588858 105.767465,41.8406499 C105.88869,42.0578623 105.947625,42.3038127 105.937559,42.5518054 C105.951417,42.8085508 105.892483,43.0639833 105.767465,43.289219 C105.65689,43.4679196 105.497153,43.6119012 105.307074,43.7043879 C105.090153,43.8066485 104.856894,43.870543 104.6178,43.8930083 C104.353907,43.9191204 104.072216,43.9337082 103.779001,43.9337082 L102.899065,43.9337082 L102.899065,41.1786552 L103.347932,41.1381011 C103.526778,41.1205958 103.734946,41.1119768 103.975499,41.1119768 C104.220283,41.1114054 104.464628,41.1318284 104.705765,41.1728201 L104.697012,41.1728201 Z M105.931724,41.0654539 C105.477168,40.7316849 104.799564,40.5602781 103.899205,40.5602781 C103.641147,40.5602781 103.359602,40.574866 103.054571,40.6038957 C102.784842,40.6243186 102.51774,40.6699784 102.25691,40.7402917 L102.25691,47.0893424 L102.899065,47.0893424 L102.899065,44.4765205 L103.95493,44.4765205 C104.157409,44.4765205 104.359742,44.4765205 104.559157,44.4474908 C104.673526,44.595557 104.805545,44.772653 104.95507,44.970026 C105.104595,45.1675449 105.248431,45.3851949 105.42436,45.6203503 C105.600289,45.8555058 105.741061,46.0935788 105.896567,46.3431761 C106.051927,46.5929194 106.189782,46.8425167 106.324719,47.0893424 L107.013993,47.0893424 C106.888684,46.8212185 106.749808,46.5595133 106.597511,46.3055396 C106.433253,46.0326017 106.266076,45.7684166 106.0989,45.5159017 C105.931724,45.2632409 105.764548,45.0339206 105.603207,44.8219597 C105.442011,44.6101448 105.309992,44.4416556 105.210211,44.3169299 C105.600143,44.2110224 105.953314,44.0012498 106.23092,43.7100772 C106.504441,43.3859361 106.642879,42.9706213 106.61808,42.5488878 C106.636607,42.2631127 106.583799,41.9770458 106.464033,41.7163618 C106.344267,41.4555318 106.161482,41.227962 105.931724,41.0539295 L105.931724,41.0654539 Z M97.4264496,47.0225302 C97.7148505,46.9042231 97.9695536,46.717791 98.1683854,46.479718 C98.3612362,46.2423744 98.5011333,45.9672484 98.5790322,45.6725747 C98.6656837,45.3487254 98.7081342,45.0148105 98.7052167,44.6797286 L98.7052167,40.6155659 L98.0658331,40.6155659 L98.0658331,44.6043097 C98.0713765,44.9157593 98.027759,45.2263337 97.9367311,45.5245085 C97.8652508,45.7598098 97.7443179,45.9774598 97.5818097,46.1631626 C97.4338894,46.3304847 97.246582,46.4591492 97.0363717,46.5377775 C96.5723336,46.7001397 96.0661367,46.7001397 95.6022445,46.5377775 C95.3915966,46.4584198 95.2034139,46.3299012 95.053743,46.1631626 C94.892256,45.9771681 94.7723442,45.759518 94.7017392,45.5245085 C94.6107113,45.2263337 94.5672397,44.9157593 94.572783,44.6043097 L94.572783,40.6183376 L93.930482,40.6183376 L93.930482,44.6826462 C93.9284397,45.017874 93.9717654,45.3517888 94.0594382,45.6754923 C94.13617,45.9706036 94.276213,46.2458755 94.4700849,46.4824897 C94.6671661,46.7212921 94.9211398,46.9078701 95.2091031,47.0254478 C95.9243433,47.2884659 96.7112095,47.2884659 97.4264496,47.0254478 L97.4264496,47.0225302 Z M86.2228689,40.6097308 L86.2228689,41.1612957 L88.3169484,41.1612957 L88.3169484,47.0893424 L88.9592495,47.0893424 L88.9592495,41.1700484 L91.0385953,41.1700484 L91.0385953,40.6183376 L86.2228689,40.6097308 Z M82.3104194,42.9728095 C82.5391561,43.527292 82.7738739,44.1339988 83.014281,44.7639003 L80.2163398,44.7639003 C80.4568927,44.1252461 80.6885471,43.527292 80.9114488,42.975727 C81.1343504,42.4241621 81.3660048,41.8753688 81.6036402,41.3383917 C81.8402544,41.8724513 82.0729299,42.4173058 82.3016667,42.9728095 L82.3104194,42.9728095 Z M84.5600049,47.0805897 C84.2999043,46.4089671 84.0593514,45.7819832 83.838492,45.1993463 C83.6174868,44.6168552 83.4014413,44.0652902 83.1903558,43.5446515 C82.9791244,43.0279514 82.7689141,42.5286108 82.559725,42.0467756 C82.3544745,41.567712 82.1344904,41.0886485 81.9057536,40.595143 L81.3396009,40.595143 C81.1089677,41.0771241 80.8889836,41.5610016 80.6797944,42.0467756 C80.4706053,42.5325495 80.2593739,43.0327654 80.046246,43.547569 C79.8322429,44.0642691 79.6180939,44.615834 79.3951922,45.1993463 C79.1722906,45.7828585 78.9406362,46.4099883 78.6942482,47.0805897 L79.3629532,47.0805897 L79.6943881,46.1660802 C79.799858,45.8757828 79.9054737,45.5854855 80.014007,45.2951882 L83.2078612,45.2951882 C83.3047242,45.5854855 83.4043589,45.8584233 83.5012219,46.1516382 C83.5979391,46.4448531 83.7212061,46.75251 83.8443271,47.0689195 L84.5600049,47.0805897 Z M75.8611504,47.0805897 L75.8611504,40.6183376 L75.2305196,40.6183376 L75.2305196,45.8845355 C75.0340218,45.5449314 74.7817986,45.1412868 74.4767676,44.6826462 C74.1717366,44.2240056 73.8432192,43.7507772 73.4913613,43.2689419 C73.1393576,42.7869608 72.7786012,42.3108148 72.4120096,41.8463391 C72.045418,41.3818634 71.6993953,40.9754471 71.3796306,40.6183376 L70.8693491,40.6183376 L70.8693491,47.0893424 L71.5028975,47.0893424 L71.5028975,41.6374417 C71.681744,41.8521742 71.8869945,42.1019175 72.1187947,42.3951324 C72.3504491,42.6883473 72.585021,42.9989216 72.8255739,43.3326906 C73.0661268,43.6666055 73.3094514,44.0091272 73.5529219,44.3633191 C73.7963924,44.717511 74.0309643,45.0571152 74.2567835,45.3881125 C74.4826027,45.7191098 74.6849356,46.0296842 74.8668456,46.3228991 C75.0486096,46.616114 75.2011981,46.874464 75.3243191,47.0893424 L75.8611504,47.0805897 Z" id="Shape" fill="#202332"></path>
                        <path d="M42.1096358,7.61179312 C41.7312282,7.61179312 33.6453533,7.78016557 27.1314603,15.0871975 C20.620485,7.78016557 12.5287458,7.61469609 12.1445467,7.61179312 C10.5587355,7.58721266 8.98382144,7.87514677 7.51150337,8.45883406 C6.0391999,9.04253594 4.69890147,9.91032074 3.56868204,11.0116709 C2.43844802,12.1130211 1.54086033,13.4259236 0.928187073,14.8739238 C0.315518193,16.3219094 2.27373675e-13,17.8762401 2.27373675e-13,19.4460339 C2.27373675e-13,21.0159735 0.315518193,22.5701584 0.928187073,24.018144 C1.54086033,25.4661296 2.43844802,26.779178 3.56868204,27.8804115 C4.69890147,28.9817908 6.0391999,29.8496194 7.51150337,30.4332775 C8.98382144,31.0169356 10.5587355,31.3048989 12.1445467,31.2803914 C13.7254127,31.2837465 15.3010416,31.0986273 16.8371375,30.7286805 C15.7328406,33.175785 15.1717936,35.8288692 15.1917789,38.5089409 C15.1951341,41.1843445 16.1131447,43.7798069 17.7964316,45.8730111 C19.4797185,47.9662154 21.8292306,49.4337487 24.4626213,50.0369544 L24.4626213,50.1589085 L24.4626213,55.3437064 C24.4626213,56.0481516 24.7453329,56.7238587 25.2486122,57.2218864 C25.7518915,57.72006 26.434455,58 27.146194,58 C27.8579331,58 28.5404965,57.72006 29.0437758,57.2218864 C29.5470551,56.7238587 29.8297668,56.0481516 29.8297668,55.3437064 L29.8297668,50.1589085 L29.8297668,50.0369544 C32.4678256,49.4334569 34.8218598,47.9634437 36.5079184,45.8663008 C38.1941229,43.7693037 39.1131546,41.1687355 39.1151969,38.4886638 C39.1151969,38.2418382 39.0389027,34.7727121 36.9624744,30.6010372 C38.6559728,31.0583649 40.4041755,31.28681 42.1595261,31.2803914 C43.7452206,31.3032942 45.3198284,31.0138721 46.7915921,30.4286094 C48.26321,29.8434925 49.6026623,28.9744969 50.7317585,27.8719505 C51.8608546,26.76955 52.7571294,25.4557722 53.3682126,24.0072031 C53.9794417,22.558634 54.2935171,21.0041574 54.2919186,19.4342178 C54.2903078,17.864424 53.9733148,16.3105309 53.3591682,14.8631288 C52.7451674,13.4157413 51.8462668,12.103714 50.7149825,11.0034726 C49.5836981,9.90321648 48.2426412,9.03672999 46.7697104,8.45444313 C45.2969255,7.87215627 43.7217343,7.58572471 42.1360398,7.61179312 L42.1096358,7.61179312 Z M5.52213512,19.4533278 C5.52213512,17.7251104 6.21304278,16.0672063 7.4440056,14.8416847 C8.67495383,13.6161632 10.3458995,12.9227318 12.0917535,12.9127538 C12.3850413,12.9127538 18.931217,13.1392003 23.9521939,19.5897238 C22.4623413,21.7757065 18.7318017,25.9880841 12.1445467,25.9880841 C10.3912529,25.9896859 8.70903094,25.3023085 7.46734608,24.0770787 C6.22566123,22.851703 5.52603006,21.188839 5.52213512,19.4533278 Z M27.1314603,45.0610539 C25.3788813,45.0587198 23.6988037,44.3687166 22.4595696,43.142028 C21.2203355,41.9153394 20.5231843,40.2523296 20.5208502,38.5176936 C20.5208502,31.9800225 24.7880752,28.2872654 26.9936056,26.8155016 C33.5133336,31.7883388 33.7391529,38.2650328 33.7391529,38.5176936 C33.7376941,40.2526213 33.0406887,41.9160688 31.8013087,43.1429033 C30.5619288,44.3695919 28.8812676,45.0595951 27.1285428,45.0610539 L27.1314603,45.0610539 Z M42.1302046,25.996834 C35.5282014,25.9880813 31.7947442,21.7757065 30.3107267,19.581117 C35.3347671,13.1275884 41.8779815,12.9040448 42.1331222,12.9040448 C43.0127669,12.885708 43.88716,13.0413599 44.7052441,13.3618831 C45.5233283,13.6823918 46.2686193,14.1613095 46.8972078,14.7706421 C47.5259423,15.3799748 48.0254287,16.1073228 48.3663458,16.9102356 C48.7074087,17.7130026 48.8830458,18.5751419 48.8830458,19.4460339 C48.8830458,20.3169259 48.7074087,21.1790652 48.3663458,21.981978 C48.0254287,22.784745 47.5259423,23.512093 46.8972078,24.1214256 C46.2686193,24.7307583 45.5233283,25.209676 44.7052441,25.5301701 C43.88716,25.85081 43.0127669,26.0064619 42.1331222,25.9880813" id="Shape" fill="url(#linearGradient-1)"></path>
                        <path d="M27.0230729,9.58231393 L27.0230729,9.68101502 L27.1316062,9.63166447 L27.2401395,9.68101502 L27.2401395,9.58231393 C36.0797663,5.84900266 32.704148,1.26509103 32.704148,1.26509103 C30.2815511,-1.6785969 27.6771901,1.32895644 27.1316062,2.1911687 C26.5890857,1.32024752 23.9818072,-1.6785969 21.5592103,1.26509103 C21.5592103,1.26509103 18.1805286,5.84900266 27.0201554,9.58231393" id="Path" fill="url(#linearGradient-2)"></path>
                    </g>
                </g>
            </g>
        </g>
    </g>
</svg>