<?xml version="1.0" encoding="UTF-8"?>
<svg id="Layer_2" data-name="Layer 2" xmlns="http://www.w3.org/2000/svg" viewBox="0 0 955.56 462.81">
  <defs>
    <style>
      .cls-1 {
        fill: #00333c;
      }

      .cls-2 {
        fill: #ff4900;
      }
    </style>
  </defs>
  <g id="Layer_1-2" data-name="Layer 1">
    <g>
      <g>
        <g>
          <g>
            <path class="cls-1" d="m773.38,278.94c0,7.73-1.31,15.06-3.91,21.99-2.61,6.92-6.16,12.99-10.66,18.21-4.5,5.22-9.76,9.35-15.78,12.41-6.03,3.06-12.37,4.59-19.02,4.59-7.56,0-15.24-1.04-23.07-3.1-7.82-2.07-15.24-4.9-22.26-8.5-4.58-2.35-8.79-5.04-12.84-7.89,3.15-9.52,4.82-19.55,4.82-30.15v-109.99h-54.76v116.34c0,7.73-1.31,15.06-3.91,21.99-2.61,6.92-6.16,12.99-10.66,18.21-4.5,5.22-9.76,9.35-15.78,12.41-5.32,2.7-10.89,4.12-16.69,4.44h-243.17V3.01h-60.16v370.08h329.82s.03,0,.05,0c10.43,0,20.19-2.29,29.27-6.88,9.08-4.59,17.04-10.79,23.88-18.61,3.85-4.41,7.19-9.29,10.12-14.55,1.52,1.54,3.08,3.07,4.77,4.57,8,7.1,16.86,13.26,26.57,18.48,9.71,5.21,20.01,9.35,30.89,12.41,10.88,3.05,21.54,4.59,31.97,4.59s20.19-2.29,29.27-6.88c9.08-4.59,17.04-10.79,23.88-18.61,6.83-7.83,12.23-17,16.19-27.52,3.95-10.52,5.93-21.72,5.93-33.59v-109.99h-54.76v102.44Z"/>
            <polygon class="cls-1" points="150.15 164.52 210.32 83.92 210.32 373.1 0 373.1 0 349.89 150.15 349.89 150.15 164.52"/>
            <circle class="cls-1" cx="778.71" cy="436.76" r="26.05" transform="translate(77.2 989.05) rotate(-67.5)"/>
            <circle class="cls-1" cx="717.33" cy="436.76" r="26.05"/>
            <circle class="cls-1" cx="561.09" cy="436.76" r="26.05"/>
            <path class="cls-1" d="m897.76,176.5v200.91c0,8.99-.68,16.46-2.02,22.39-1.35,5.93-3.24,10.7-5.67,14.3-1.9,2.82-4.15,4.98-6.71,6.52v21.32c2.97-.53,5.89-1.12,8.73-1.81,12.23-2.97,22.8-8.95,31.7-17.94,8.9-9,15.87-21.85,20.91-38.58,5.04-16.73,7.56-38.85,7.56-66.37v-140.75h-54.5Z"/>
          </g>
          <g>
            <path class="cls-1" d="m467.85,71.3c4.8-1.21,9.19-2.87,13.19-4.96s7.42-4.58,10.24-7.5c2.84-2.89,5.04-6.14,6.62-9.73,1.55-3.62,2.33-7.48,2.33-11.61,0-4.99-1.02-9.62-3.03-13.83-2.04-4.23-5.07-7.88-9.06-10.96-3.99-3.06-9.01-5.44-15.01-7.16-5.98-1.69-12.95-2.55-20.88-2.55h-45.99v132.57h22.3v-62.29h15.6l46.07,62.29h25.89l-48.27-64.27Zm-12.54-6.7c-4.23,1.34-8.84,1.98-13.86,1.98h-12.89V11.31h19.59c4.07,0,7.83.67,11.26,1.98,3.43,1.34,6.38,3.19,8.9,5.55,2.49,2.39,4.42,5.23,5.79,8.55,1.37,3.35,2.04,7,2.04,11.02,0,4.32-.86,8.23-2.6,11.69-1.72,3.46-4.13,6.41-7.24,8.84-3.11,2.44-6.75,4.32-10.99,5.66Z"/>
            <path class="cls-1" d="m534.21,3v132.57h22.3V3h-22.3Z"/>
            <path class="cls-1" d="m698.57,87.54c-1.47-3.7-3.54-6.94-6.24-9.7-2.71-2.76-5.95-5.04-9.76-6.83-3.78-1.82-8.07-3.08-12.78-3.81v-.4c4.72-2.28,8.66-4.48,11.74-6.65,3.11-2.17,5.57-4.48,7.45-6.89,1.88-2.44,3.16-5.09,3.89-7.96.75-2.87,1.13-6.14,1.13-9.81,0-4.8-1.18-9.19-3.51-13.19s-5.63-7.42-9.84-10.29c-4.23-2.87-9.3-5.09-15.2-6.65-5.9-1.55-12.38-2.36-19.46-2.36h-53.36v132.57h61.86c7.08,0,13.46-.94,19.16-2.79,5.68-1.88,10.56-4.42,14.58-7.67,4.02-3.22,7.13-7.02,9.3-11.39,2.17-4.37,3.24-9.06,3.24-14.04,0-4.4-.72-8.44-2.2-12.14Zm-83.68-75.72h18.41c6.65,0,12.36.59,17.13,1.8,4.77,1.18,8.71,2.92,11.79,5.2,3.11,2.25,5.39,4.99,6.86,8.15,1.45,3.16,2.2,6.67,2.2,10.53,0,3.59-.62,6.94-1.85,10.05-1.23,3.11-3.06,5.76-5.44,7.99-2.41,2.25-5.33,3.99-8.82,5.25-3.46,1.26-7.42,1.9-11.87,1.9h-28.41V11.82Zm59.64,98.96c-1.5,3.14-3.81,5.82-6.89,8.04-3.11,2.25-7.05,3.97-11.79,5.2-4.77,1.23-10.4,1.85-16.86,1.85h-24.1v-54.97h23.4c7.13,0,13.16.75,18.04,2.3,4.9,1.53,8.87,3.62,11.9,6.25,3.03,2.63,5.23,5.74,6.54,9.33,1.34,3.62,2.01,7.5,2.01,11.71,0,3.73-.75,7.16-2.25,10.29Z"/>
            <path class="cls-1" d="m781.66,0h-5.6l-63.9,135.57h11.2l20.91-44.2h56.88l20.18,44.2h22.7L781.66,0Zm-33.5,82.79l24.79-52.48,24.1,52.48h-48.89Z"/>
            <path class="cls-1" d="m884.72,126.97V59.32l-22.3-16.64v92.89h89.07v-8.6h-66.77Z"/>
          </g>
        </g>
        <g>
          <path class="cls-1" d="m916.23,2.71v1.5h6.06v15.94h4.27V4.2h6.02v-1.5h-16.35Z"/>
          <path class="cls-1" d="m951.51,2.71l-5.96,11.92-6.02-11.92h-4.14v17.43h2.71v-11.47l5.86,11.47h1.66l5.7-11.35v11.35h4.24V2.71h-4.05Z"/>
        </g>
      </g>
      <g>
        <polygon class="cls-2" points="884.72 0 862.41 0 862.41 26.94 884.72 43.58 884.72 0"/>
        <polygon class="cls-2" points="210.32 3 210.32 48.06 150.15 128.65 150.15 3 210.32 3"/>
      </g>
    </g>
  </g>
</svg>