<?xml version="1.0" encoding="UTF-8"?>
<svg width="117px" height="58px" viewBox="0 0 117 58" version="1.1" xmlns="http://www.w3.org/2000/svg" xmlns:xlink="http://www.w3.org/1999/xlink">
    <title>sayyar-logo</title>
    <g id="FINAL" stroke="none" stroke-width="1" fill="none" fill-rule="evenodd">
        <g id="HOMEPAGE" transform="translate(-190.000000, -5584.000000)" fill="#202332">
            <g id="Group-21" transform="translate(190.000000, 5407.000000)">
                <g id="sayyar-logo" transform="translate(0.000000, 177.000000)">
                    <path d="M88.6087462,49.2074151 C89.9762071,50.6103642 91.3490379,52.0077098 92.719534,53.4071567 C92.7636607,53.4519838 92.8241306,53.4888728 92.8234362,53.5799279 C92.788409,53.6200856 92.7482513,53.6705161 92.7034242,53.7162771 C91.348571,55.1049842 89.9904491,56.4908896 88.6409657,57.8847331 C88.4819695,58.0493327 88.3930157,58.0299543 88.2445258,57.8765615 C86.9256277,56.5177391 85.5999587,55.1656876 84.2754572,53.8122352 C84.0258728,53.5575144 84.0214368,53.556347 84.2819945,53.289719 C85.1881095,52.3623578 86.0965593,51.4373313 87.0040751,50.5113709 C87.4287655,50.078509 87.8569579,49.6491491 88.274644,49.2097499 C88.3997864,49.0780702 88.4796348,49.0748016 88.6087462,49.2074151 Z M93.6654798,44.2095406 C94.99325,45.5849396 96.3322269,46.9500657 97.6667679,48.318694 C97.7118285,48.364922 97.7519861,48.4155859 97.7884082,48.4578449 C97.7870073,48.5453978 97.7270044,48.5818199 97.6835781,48.626647 C96.3291918,50.0153541 94.9715368,51.400559 93.622287,52.794636 C93.456053,52.9664733 93.3582272,52.9517644 93.2001648,52.7883322 C91.8572188,51.4014929 90.5084359,50.020257 89.1549835,48.6439241 C89.0191012,48.5057072 89.0461843,48.4307618 89.1664237,48.3077207 C90.5056342,46.9430615 91.8446112,45.5784023 93.1693462,44.1999681 C93.3745704,43.9863388 93.4779996,44.0155231 93.6654798,44.2095406 Z M93.2275047,0.346008896 C94.0189837,1.15126288 94.8148987,1.95231432 95.59377,2.76970899 C97.1237293,4.37554746 97.4384531,6.6902149 96.4415164,8.8893124 C95.9376782,10.0006516 95.2034005,10.9469243 94.356588,11.8133486 C91.82619,14.4025822 89.28692,16.9831773 86.7691296,19.5843181 L86.20692,20.1586125 L85.074745,21.3000094 C84.3217914,22.0626941 83.5795327,22.8354856 82.8901822,23.6579833 C82.288985,24.3754509 81.7522269,25.1391464 81.4337675,26.0307859 C81.092661,26.9852302 81.1225458,27.8962482 81.778376,28.7281183 C81.8853074,28.8640005 81.9527816,28.9034577 82.095668,28.7568357 C83.6641506,27.1453938 85.2396373,25.5407227 86.8125559,23.9334834 C88.1116087,22.6064136 89.4097276,21.2788769 90.7078466,19.9508732 L94.6572168,15.9041354 C95.3163503,15.2305611 95.9766684,14.5581541 96.6392694,13.8880041 C97.7688197,12.7458463 99.039622,11.8089126 100.644527,11.4390888 C102.43948,11.0251383 104.037847,11.450529 105.334565,12.7411768 C107.576855,14.9722603 109.768715,17.2535409 111.981587,19.5142757 C113.032223,20.5880255 114.094299,21.6510354 115.129759,22.7392607 C116.757544,24.4492288 117.077171,26.4297941 116.26468,28.6120814 C115.787224,29.894791 114.968195,30.9552328 114.019821,31.923452 C111.421482,34.5771246 108.82361,37.2310307 106.223403,39.8828355 C105.243743,40.8823404 104.280894,41.8998228 103.269482,42.8666412 C102.244528,43.8460673 101.067583,44.5959878 99.6555281,44.9013726 C97.8878917,45.2840375 96.3411223,44.8334315 95.0448712,43.5880778 C94.163738,42.7414988 93.3197272,41.8556961 92.4729147,40.9740959 C92.2929058,40.7863823 92.2044189,40.8174344 92.0393523,40.986937 C90.156146,42.9166048 88.2811113,44.8556115 86.3677867,46.7553946 C85.4591035,47.6573071 84.3872215,48.343022 83.1381322,48.7000047 C81.1925882,49.2561413 79.4798183,48.8263145 78.0353108,47.4163612 C77.1541776,46.5562407 76.3150698,45.6529274 75.4500463,44.7762302 C75.3153314,44.639414 75.2952526,44.5471916 75.448412,44.4183136 C75.5980692,44.2927042 75.7115379,44.0832775 75.8787057,44.0307457 C76.0710888,43.9700423 76.1868922,44.2217279 76.3416859,44.3274919 C77.1044475,44.8476734 77.9087676,44.8616819 78.7450737,44.5532619 C79.76349,44.1778347 80.6035317,43.5259736 81.3915086,42.8059378 C82.7148427,41.5965392 83.9216731,40.2699364 85.182903,38.9974997 C86.0234117,38.1495199 86.8482775,37.2854303 87.6883192,36.43675 C87.8258358,36.2978326 87.8265362,36.220786 87.6876188,36.0823355 C87.0866551,35.4827727 86.4915283,34.8764391 85.9085421,34.2593657 C85.7439425,34.0854271 85.6617595,34.1024707 85.4992611,34.2687046 C83.6095175,36.2056101 81.7302802,38.153022 79.8062159,40.0556067 C78.7992398,41.0511425 77.6092196,41.7886889 76.1987994,42.0992101 C74.4211236,42.4900466 72.8423682,42.0620876 71.5643281,40.7854484 C69.1684115,38.3916331 66.8201237,35.9499554 64.4519906,33.5283566 C63.564787,32.6210742 62.6773499,31.7137918 61.7887455,30.8079103 C60.7693953,29.7687147 60.2216638,28.5322331 60.206488,27.0937959 C60.2209634,25.5519295 60.8048834,24.2423703 61.6631362,23.0301701 C62.1945244,22.2800161 62.8452182,21.63656 63.4844717,20.983298 C66.453802,17.9485948 69.425934,14.9166933 72.3957312,11.8824571 C74.8306381,9.39525192 77.2636772,6.90664588 79.6969497,4.41803984 C80.3688897,3.73092402 81.0429309,3.04567599 81.7062324,2.35015508 C81.8505197,2.199097 81.9362049,2.19396056 82.0837608,2.34618602 C83.4348785,3.73956258 84.7901987,5.1287366 86.1525231,6.51090639 C86.3136206,6.67410515 86.2288693,6.75301958 86.1156341,6.86858952 C84.8539373,8.15340038 83.5948086,9.44124642 82.3345126,10.7276916 C78.6386092,14.5006416 74.9406047,18.2712568 71.247503,22.0470084 C69.655673,23.67456 68.0645434,25.3030455 66.4930257,26.9499755 C65.7767256,27.7010634 65.1484454,28.5268632 64.700641,29.4731358 C64.3712083,30.1695906 64.1834947,30.8896264 64.3714418,31.6659295 C64.5017207,32.204322 64.8285851,32.6173386 65.2044793,33.0016378 C66.5945872,34.4223309 67.9863294,35.8409228 69.3729353,37.2648845 C70.1307939,38.0432889 71.0287373,38.2270334 72.0420172,37.9039046 C72.9572377,37.6122948 73.7190654,37.0566251 74.444938,36.4491242 C75.5637484,35.512424 76.5357033,34.4246657 77.56019,33.3917739 C78.7495097,32.1924148 79.9213188,30.9757785 81.1094712,29.7754855 C81.2689344,29.6141545 81.285978,29.5254341 81.115775,29.356632 C80.3602511,28.6078789 79.6241056,27.8392804 78.8727843,27.0860913 C77.044211,25.253082 76.6325953,22.9734357 77.7091468,20.6186106 C78.2447376,19.4472685 79.0429873,18.4697102 79.9364947,17.5572914 C83.1159521,14.3108267 86.292141,11.0606264 89.4666954,7.80925878 C90.3335867,6.92135478 91.2072488,6.0378868 91.9076727,5.00522853 C92.3606134,4.3374911 92.7467805,3.64033587 92.8882661,2.82994544 C93.0255492,2.04313595 92.8343334,1.34854894 92.3171871,0.748052202 C92.1911108,0.601897086 92.1623935,0.521114866 92.3132181,0.364219917 C92.7715288,-0.112535269 92.7654584,-0.123975525 93.2275047,0.346008896 Z M105.648588,15.4683939 C105.106927,15.4702617 104.510866,15.701635 103.94329,16.0203279 C102.907363,16.6019132 102.033,17.3884892 101.208134,18.2287644 C98.2280642,21.2646349 95.2575666,24.3103114 92.2826329,27.3515519 C90.3581016,29.3188091 88.4331033,31.2858328 86.503669,33.248654 C86.3768922,33.377532 86.3691876,33.4489752 86.5018012,33.5811219 C87.1170068,34.1930589 87.7242743,34.812934 88.324771,35.4391129 C88.4655562,35.585735 88.5500741,35.5672905 88.6808198,35.4307079 C89.2614712,34.8241408 89.8514616,34.2264457 90.4381834,33.625949 C92.152821,31.8709202 93.8672252,30.1151911 95.5832637,28.3613297 C97.507795,26.3940725 99.4351281,24.4289165 101.358492,22.460492 C101.485736,22.3299797 101.571187,22.2641398 101.735554,22.4338759 C102.955692,23.6941719 104.186103,24.9439616 105.411378,26.1988877 L105.492264,26.275937 L105.668297,26.4314733 C105.783022,26.536168 105.880529,26.6433567 105.889067,26.7559581 C105.906344,26.9824285 105.58485,27.1467947 105.405541,27.3303057 C102.002882,30.8144476 98.5946194,34.293453 95.1872907,37.7731588 C94.4887346,38.4864238 93.790879,39.2001557 93.0874199,39.9085177 C92.9389301,40.057708 92.9139483,40.1592695 93.1016619,40.3044907 C93.5363916,40.6409276 94.0110456,40.8419493 94.5674156,40.8491896 C95.2139068,40.8573586 95.7936243,40.6404607 96.3492939,40.3409127 C97.328253,39.8125596 98.1661935,39.0957925 98.9399284,38.3103839 C102.095104,35.1061781 105.239541,31.891466 108.383744,28.6760535 C109.198803,27.842549 110.039779,27.0326256 110.788999,26.1370169 C111.47378,25.3182214 112.106496,24.4646382 112.438264,23.431046 C112.759525,22.4296733 112.635783,21.5041799 111.887731,20.7302115 C110.396295,19.1871777 108.892952,17.6558176 107.384239,16.130061 C106.947174,15.6880935 106.397341,15.4693278 105.648588,15.4683939 Z M31.4864007,37.7212107 C26.4638945,37.7212107 21.4416219,37.7207437 16.4191157,37.7219111 C15.579074,37.7221446 14.7616794,37.5981695 13.9944817,37.2474907 C12.4689585,36.5494015 11.7402842,35.2818678 11.4778587,33.6863022 C11.4124859,33.2879945 11.4080498,32.8875855 11.4080498,32.486943 C11.4070412,27.4020992 11.4070412,22.3170218 11.4070412,17.2321779 C11.4070412,16.8270995 11.4075829,16.8266325 11.8236347,16.8262953 C13.0092188,16.8262953 14.1945695,16.8262953 15.3803871,16.8262953 C15.7971393,16.8266325 15.7978397,16.826866 15.7978397,17.2340457 C15.7978397,22.3097841 15.7985402,27.385289 15.7971393,32.4610274 C15.7969058,33.0138953 15.8389313,33.5590585 16.0238432,34.0862442 C16.324792,34.9437965 16.918051,35.3972042 17.8267342,35.4116797 C18.8439832,35.4280229 19.8619326,35.4277894 20.8791815,35.4112127 C21.7731558,35.3967373 22.3722517,34.9477656 22.6687645,34.106323 C22.8380336,33.6267662 22.9017722,33.1273639 22.9022391,32.6211909 C22.9045739,29.8503141 22.9071421,27.0792038 22.8975696,24.3083269 C22.8966357,24.0426328 22.9615417,23.9585819 23.2365748,23.9618506 C24.4872984,23.976326 25.7384889,23.9746917 26.9892125,23.9627845 C27.2364621,23.9604497 27.3030024,24.0321264 27.3020685,24.2777417 C27.2936634,27.104886 27.3009011,29.9317967 27.2943638,32.7587075 C27.2922625,33.5973484 27.1281299,34.4091396 26.7732484,35.1728351 C26.6758895,35.3822619 26.722351,35.4205517 26.9336455,35.4200848 C28.847437,35.4149483 30.761462,35.4140144 32.67502,35.4207852 C32.8902836,35.4217191 32.9425819,35.343972 32.9397802,35.1427169 C32.9295074,34.4616714 32.9353442,33.7806259 32.9360446,33.099347 C32.9393133,30.1792798 32.9425819,27.2589792 32.9463175,24.3386786 C32.9467845,23.9693217 32.9479519,23.9683878 33.3142735,23.9683878 C34.5372136,23.9679209 35.7603872,23.9767929 36.9830938,23.9616171 C37.2655981,23.958115 37.3438121,24.035862 37.3431117,24.3202341 C37.3335392,27.8842243 37.3368079,31.4482144 37.3368079,35.0122046 C37.3368079,35.4168161 37.3372748,35.4170496 37.7509919,35.4172831 C38.3486869,35.4172831 38.9463819,35.4042085 39.5433766,35.4228865 C39.8090707,35.4312915 39.8695406,35.3362674 39.8688402,35.0869165 C39.8616025,32.054548 39.8641707,29.0221796 39.8641707,25.9900446 C39.8641707,25.4395115 39.8639372,24.8892118 39.8644042,24.3386786 C39.8648711,23.9695552 39.8655715,23.9683878 40.2272237,23.9683878 C41.4597363,23.9679209 42.6920154,23.9753921 43.924061,23.9623175 C44.1918564,23.9595158 44.2714712,24.0344612 44.2707708,24.3062256 C44.2621322,27.8795548 44.2649339,31.4528839 44.2649339,35.0262131 C44.2649339,35.4165826 44.2654009,35.4205517 44.6616073,35.4158822 C44.9317374,35.412847 45.207004,35.426622 45.4710638,35.3817949 C46.3199776,35.238208 46.7698832,34.6708647 46.9851468,33.8824209 C47.1184608,33.3937585 47.1581515,32.8913211 47.158385,32.3865489 C47.1602527,29.699723 47.1630544,27.01243 47.153482,24.325604 C47.1525481,24.0533726 47.2078816,23.9567141 47.503227,23.9606832 C48.7539505,23.9781938 50.0049076,23.9732908 51.2558646,23.9634849 C51.4849032,23.9618506 51.5582143,24.0246552 51.5575188,24.2604646 C51.5500427,27.0689309 51.5547122,29.8771637 51.5507431,32.6856299 C51.5500427,33.4087009 51.4358736,34.1170629 51.1855888,34.796941 C50.5491369,36.5253536 49.251018,37.4036852 47.4745096,37.6609742 C47.0853074,37.7174751 46.6940039,37.7221446 46.3017665,37.7221446 C41.3633113,37.7209772 36.424856,37.7212107 31.4864007,37.7212107 M7.86385832,30.612562 C7.86385832,32.6272146 7.87996807,34.6418671 7.85802146,36.6562862 C7.84401298,37.9235865 7.49169977,39.0911931 6.59398983,40.0313954 C5.79433924,40.8686354 4.76775131,41.3045325 3.66505065,41.576297 C2.54320507,41.8529644 1.39427644,41.8700081 0.247916029,41.9094653 C0.066506245,41.9155356 -0.0026022442,41.8436254 0.00230072294,41.6636165 C0.0104723348,41.3561304 0.0149083527,41.047477 0.000666400557,40.7404578 C-0.0089060591,40.5303307 0.0847172658,40.4588874 0.277100357,40.4507158 C0.641087299,40.4348396 1.00040475,40.3776383 1.3550527,40.2963891 C2.68982714,39.9903039 3.26043913,39.3340067 3.41686712,37.9700479 C3.48807689,37.3476046 3.50115146,36.7228265 3.50301926,36.1001496 C3.51399257,32.1922514 3.50862265,28.2841196 3.50862265,24.3762213 C3.50862265,23.9788475 3.50932308,23.9783806 3.89642401,23.9783806 C5.11913062,23.9781471 6.34160376,23.9851513 7.5640769,23.9724816 C7.81412823,23.9699755 7.87716637,24.0465551 7.87624265,24.2889018 C7.86759391,26.3967107 7.87132951,28.5047531 7.87132951,30.612562 L7.86385832,30.612562 Z M27.276573,42.3984545 C27.2410849,42.4407135 27.2023281,42.4925448 27.1572675,42.5387728 C26.4419012,43.2737509 25.722099,44.00476 25.0121026,44.745108 C24.8687492,44.8945318 24.7767602,44.9003686 24.6303716,44.7476762 C23.9140715,44.000324 23.1903001,43.2599759 22.4623262,42.5240639 C22.3385847,42.3989215 22.3535271,42.3239761 22.4693305,42.2067719 C23.2031412,41.4631552 23.9308816,40.7139351 24.659089,39.965182 C24.7520119,39.8696909 24.824389,39.8015163 24.9523331,39.9345968 C25.6819413,40.6950237 26.4185538,41.4484463 27.1518976,42.205371 C27.2023281,42.2574359 27.267701,42.302263 27.276573,42.3984545 M19.6738221,44.8827646 C19.5804322,44.874593 19.5391072,44.8201934 19.4942801,44.7746659 C18.7614032,44.0298818 18.0303942,43.2829965 17.2965834,42.5391464 C17.1838152,42.4247438 17.1751766,42.3367239 17.2975173,42.2129823 C18.0320285,41.4698326 18.7611697,40.7215464 19.4863419,39.9690577 C19.6021453,39.8485848 19.6745225,39.8352767 19.7973301,39.9629873 C20.5285727,40.7224803 21.2651851,41.4766033 22.0055331,42.2272243 C22.1211031,42.3444285 22.1014912,42.4219421 21.9978285,42.5279396 C21.2598152,43.2808952 20.5260044,44.0375865 19.7896255,44.791943 C19.7520361,44.8304663 19.7044072,44.8591837 19.6738221,44.8827646" id="Combined-Shape"></path>
                </g>
            </g>
        </g>
    </g>
</svg>