<?xml version="1.0" encoding="UTF-8"?>
<svg width="120px" height="52px" viewBox="0 0 120 52" version="1.1" xmlns="http://www.w3.org/2000/svg" xmlns:xlink="http://www.w3.org/1999/xlink">
    <title>hungerstation-logo</title>
    <defs>
        <polygon id="path-1" points="0 0 118.124553 0 118.124553 51.853436 0 51.853436"></polygon>
        <polygon id="path-3" points="0 51.8536126 118.124553 51.8536126 118.124553 0 0 0"></polygon>
        <polygon id="path-5" points="0 51.8536126 118.124553 51.8536126 118.124553 0 0 0"></polygon>
        <polygon id="path-7" points="0 51.8536126 118.124553 51.8536126 118.124553 0 0 0"></polygon>
        <polygon id="path-9" points="0 51.8536126 118.124553 51.8536126 118.124553 0 0 0"></polygon>
        <polygon id="path-11" points="0 51.8536126 118.124553 51.8536126 118.124553 0 0 0"></polygon>
        <polygon id="path-13" points="0 51.8536126 118.124553 51.8536126 118.124553 0 0 0"></polygon>
        <polygon id="path-15" points="0 51.8536126 118.124553 51.8536126 118.124553 0 0 0"></polygon>
    </defs>
    <g id="FINAL" stroke="none" stroke-width="1" fill="none" fill-rule="evenodd">
        <g id="HOMEPAGE" transform="translate(-814.000000, -3150.000000)">
            <g id="Group-28" transform="translate(79.904167, 3098.000000)">
                <g id="Group-13" transform="translate(684.000000, 0.000000)">
                    <g id="hungerstation-logo" transform="translate(51.000000, 52.000000)">
                        <g id="Fill-1-Clipped">
                            <mask id="mask-2" fill="white">
                                <use xlink:href="#path-1"></use>
                            </mask>
                            <g id="path-2"></g>
                            <path d="M117.806928,25.9471675 C118.279516,24.8477389 118.224457,23.581386 117.634323,22.5195372 L115.044373,17.8616046 C115.363802,17.4737895 115.65723,17.0610668 115.923348,16.6249659 C116.908726,15.0081593 117.408406,13.2135038 117.408406,11.2908148 C117.408406,8.22652911 116.268776,5.52952075 114.11165,3.4908149 C112.016138,1.51263006 109.314104,0.466730921 106.29723,0.466730921 L98.2765581,0.466730921 L95.7615497,0.466730921 L83.013903,0.466730921 C81.4493148,0.466730921 80.1040878,1.39202502 79.4855501,2.72348719 C78.3736677,1.90678131 77.1250123,1.25328553 75.7454828,0.77763848 C73.4640376,-0.00782369221 71.0495334,-0.199655621 68.5668612,0.208478825 C65.9998528,0.631251928 63.7730293,1.59936956 61.9056175,3.09098298 C61.379063,1.56484854 59.9337689,0.466730921 58.2289117,0.466730921 L53.13029,0.466730921 C51.5866765,0.466730921 50.2525926,1.36580653 49.6235673,2.66886533 L49.240559,2.12308383 C48.5119035,1.08505024 47.3231136,0.466730921 46.0545758,0.466730921 L42.0728616,0.466730921 L39.0081389,0.466730921 L33.8800214,0.466730921 C32.7768786,0.466730921 31.7812316,0.925772931 31.0728954,1.66294938 C30.3643408,0.925772931 29.3686938,0.466730921 28.2655509,0.466730921 L23.1378703,0.466730921 C22.5606267,0.466730921 20.5588452,0.523974617 20.0303242,0.523974617 L14.9605428,0.523974617 C13.8582739,0.523974617 12.8632823,0.98192419 12.1549462,1.71844519 C11.447047,0.98192419 10.4520555,0.523974617 9.34978656,0.523974617 L4.25138329,0.523974617 C2.10212282,0.523974617 0.359248903,2.26663004 0.359248903,4.41610901 L0.359248903,24.3535205 C0.359248903,25.851907 1.20741696,27.150596 2.44864383,27.8008145 C1.40274468,29.3717389 0.859148054,31.2247305 0.859148054,33.2708648 C0.859148054,35.9626294 1.75691275,37.8560413 2.76370265,39.1328815 L1.93541695,39.6142093 C0.309433778,40.5602597 -0.40764184,42.5340747 0.232963191,44.3031671 C1.07982032,46.6438226 2.58541694,48.5228141 4.70518159,49.886831 C6.72990426,51.1918561 9.212358,51.853436 12.0824084,51.853436 C15.2640217,51.853436 17.9380889,51.0105116 20.0301058,49.347604 C20.7535175,48.7729822 21.3703074,48.1212343 21.8778536,47.4015368 L21.8778536,47.5317553 C21.8778536,49.6812343 23.620509,51.4236712 25.769988,51.4236712 C25.769988,51.4236712 32.7703239,51.4776376 33.3016853,51.4776376 L38.9452147,51.4525116 C40.6651474,51.4525116 42.1812314,50.3235872 42.6741389,48.6757554 L42.9369792,47.8522764 L43.5312649,47.7106965 L43.9507608,48.5503435 C44.4795003,50.1418057 45.9717691,51.4330662 47.6484413,51.4330662 L52.8775001,51.5573855 C53.5060883,51.5573855 55.4930126,51.4964275 55.9420042,51.4964275 L61.161668,51.4236712 C62.6554663,51.4236712 63.951315,50.5807468 64.6037183,49.3456376 C65.2561217,50.5807468 66.551752,51.4236712 68.0457688,51.4236712 L73.1717015,51.4236712 C74.9060543,51.4236712 76.3740712,50.2884107 76.8770291,48.7212007 C79.4374829,50.7998898 82.4797012,51.853436 85.9429449,51.853436 C89.1894491,51.853436 92.0662726,50.9290158 94.5222893,49.1013687 C95.1257515,50.4682258 96.4912976,51.4236712 98.0818859,51.4236712 L103.208037,51.4236712 C104.750995,51.4236712 106.084205,50.5259065 106.713886,49.2241586 L107.094928,49.7670998 C107.823583,50.8053519 109.012155,51.4236712 110.280911,51.4236712 L114.232692,51.4236712 C116.381953,51.4236712 118.124608,49.6812343 118.124608,47.5317553 L118.124608,27.4861927 C118.124608,26.9393187 118.010776,26.4193187 117.806928,25.9471675" id="Fill-1" fill="#FFFFFF" fill-rule="nonzero" mask="url(#mask-2)"></path>
                        </g>
                        <path d="M10.8761832,47.6965727 C8.75707395,47.6965727 7.00043533,47.2482365 5.60735972,46.3506903 C4.21319167,45.4533626 3.23961186,44.2414131 2.68640179,42.7137492 L7.06751095,40.1650937 C7.81211598,41.9405223 9.12937647,42.8284551 11.0192924,42.8284551 C12.5843176,42.8284551 13.3673764,42.3836147 13.3673764,41.4941526 C13.3673764,40.9075139 12.9161999,40.4344888 12.0136285,40.0748584 C11.6330235,39.917329 10.7955613,39.6514299 9.50189747,39.2773795 C7.66878825,38.7431778 6.21803198,37.9937661 5.14875468,37.0293628 C4.0794774,36.0656148 3.54505724,34.7241023 3.54505724,33.0059175 C3.54505724,31.1544553 4.20816646,29.6556318 5.53569586,28.5101024 C6.86213281,27.364573 8.51826724,26.7919175 10.5040991,26.7919175 C12.1833932,26.7919175 13.6728218,27.1834469 14.9710739,27.9658503 C16.2695445,28.7489091 17.2621326,29.8846066 17.9492755,31.3738166 L13.6538133,33.8938502 C13.0239142,32.4046402 11.9832588,31.6600351 10.532721,31.6600351 C9.92139326,31.6600351 9.45885545,31.7850099 9.14357814,32.0345225 C8.82873782,32.2842536 8.6712084,32.6006234 8.6712084,32.9847242 C8.6712084,33.4262872 8.90433446,33.8007746 9.37124201,34.1077493 C9.83793107,34.4149426 10.7477126,34.7704216 12.100805,35.1728754 C13.0545024,35.516556 13.832536,35.7966569 14.4353428,36.0136149 C15.0379309,36.2310098 15.6931747,36.5729426 16.4001999,37.0398501 C17.1074435,37.5063206 17.6329057,38.1062871 17.9772419,38.8397492 C18.321141,39.5732115 18.493309,40.4349257 18.493309,41.4251106 C18.493309,43.3917156 17.7963343,44.9287744 16.4032586,46.035413 C15.0093092,47.1431441 13.1670235,47.6965727 10.8761832,47.6965727" id="Fill-4" fill="#592913" fill-rule="nonzero"></path>
                        <polygon id="Fill-6" fill="#592913" fill-rule="nonzero" points="35.1821308 26.7919175 35.1821308 31.7459006 30.2279292 31.7459006 30.2279292 46.8374802 25.1019965 46.8374802 25.1019965 31.7459006 20.1480134 31.7459006 20.1480134 26.7919175"></polygon>
                        <polygon id="Fill-8" fill="#592913" fill-rule="nonzero" points="66.0757514 26.7919175 66.0757514 31.7459006 61.1217682 31.7459006 61.1217682 46.8374802 55.995617 46.8374802 55.995617 31.7459006 51.041634 31.7459006 51.041634 26.7919175"></polygon>
                        <g id="Fill-10-Clipped" transform="translate(0.000000, 0.146387)">
                            <mask id="mask-4" fill="white">
                                <use xlink:href="#path-3"></use>
                            </mask>
                            <g id="path-4"></g>
                            <polygon id="Fill-10" fill="#592913" fill-rule="nonzero" mask="url(#mask-4)" points="67.1600447 46.9095805 72.2861959 46.9095805 72.2861959 26.8640179 67.1600447 26.8640179"></polygon>
                        </g>
                        <g id="Fill-12-Clipped" transform="translate(0.000000, 0.146387)">
                            <mask id="mask-6" fill="white">
                                <use xlink:href="#path-5"></use>
                            </mask>
                            <g id="path-6"></g>
                            <path d="M81.8630146,41.2251941 C82.8940567,42.2466226 84.1824767,42.7574462 85.7289305,42.7574462 C87.2753843,42.7574462 88.5638044,42.2466226 89.5950649,41.2251941 C90.62567,40.2042025 91.1410817,38.9011437 91.1410817,37.3162362 C91.1410817,35.7319841 90.62567,34.4289253 89.5950649,33.4074968 C88.5638044,32.3862867 87.2753843,31.8754632 85.7289305,31.8754632 C84.1824767,31.8754632 82.8940567,32.3862867 81.8630146,33.4074968 C80.8321911,34.4289253 80.3165608,35.7319841 80.3165608,37.3162362 C80.3165608,38.9011437 80.8321911,40.2042025 81.8630146,41.2251941 M93.1887455,44.7476478 C91.1555019,46.7621016 88.6684599,47.768673 85.7289305,47.768673 C82.7887457,47.768673 80.3023592,46.7621016 78.2691155,44.7476478 C76.2358719,42.733631 75.21925,40.256421 75.21925,37.3162362 C75.21925,34.3767068 76.2358719,31.8994968 78.2691155,29.8852615 C80.3023592,27.8712447 82.7887457,26.8640179 85.7289305,26.8640179 C88.6684599,26.8640179 91.1555019,27.8712447 93.1887455,29.8852615 C95.2219891,31.8994968 96.238611,34.3767068 96.238611,37.3162362 C96.238611,40.256421 95.2219891,42.733631 93.1887455,44.7476478" id="Fill-12" fill="#592913" fill-rule="nonzero" mask="url(#mask-6)"></path>
                        </g>
                        <g id="Fill-13-Clipped" transform="translate(0.000000, 0.146387)">
                            <mask id="mask-8" fill="white">
                                <use xlink:href="#path-7"></use>
                            </mask>
                            <g id="path-8"></g>
                            <polygon id="Fill-13" fill="#592913" fill-rule="nonzero" mask="url(#mask-8)" points="109.107379 26.8640179 114.204472 26.8640179 114.204472 46.9095805 110.25269 46.9095805 103.179816 36.8294463 103.179816 46.9095805 98.0536652 46.9095805 98.0536652 26.8640179 102.034068 26.8640179 109.107379 36.9441521"></polygon>
                        </g>
                        <g id="Fill-14-Clipped" transform="translate(0.000000, 0.146387)">
                            <mask id="mask-10" fill="white">
                                <use xlink:href="#path-9"></use>
                            </mask>
                            <g id="path-10"></g>
                            <path d="M43.5677961,37.8626732 L40.4447373,38.3892278 L42.0729054,32.8525388 L43.5677961,37.8626732 Z M38.6900651,26.8640179 L32.2368214,47.1153957 L37.841897,47.1153957 L38.578855,44.6512949 L39.0033759,43.2293789 L44.9398969,42.1651268 L45.8092581,44.7996478 L46.5781153,47.1153957 L51.9096446,47.1153957 L45.2103842,26.8640179 L38.6900651,26.8640179 Z" id="Fill-14" fill="#592913" fill-rule="nonzero" mask="url(#mask-10)"></path>
                        </g>
                        <g id="Fill-15-Clipped" transform="translate(0.000000, 0.146387)">
                            <mask id="mask-12" fill="white">
                                <use xlink:href="#path-11"></use>
                            </mask>
                            <g id="path-12"></g>
                            <polygon id="Fill-15" fill="#592913" fill-rule="nonzero" mask="url(#mask-12)" points="14.7389806 11.4673505 9.12800596 12.4730479 9.12800596 10.8968799 9.12800596 4.02960268 4.02960268 4.02960268 4.02960268 23.9670141 9.12800596 23.9670141 9.12800596 17.0549469 14.7389806 16.0492496 14.7389806 16.8275017 14.7389806 23.9670141 19.8087621 23.9670141 19.8087621 4.02960268 14.7389806 4.02960268"></polygon>
                        </g>
                        <g id="Fill-16-Clipped" transform="translate(0.000000, 0.146387)">
                            <mask id="mask-14" fill="white">
                                <use xlink:href="#path-13"></use>
                            </mask>
                            <g id="path-14"></g>
                            <path d="M36.4846334,22.5922914 C35.0043813,23.8719721 33.0993899,24.5117032 30.7698772,24.5117032 C28.4394907,24.5117032 26.5342807,23.8719721 25.0549025,22.5922914 C23.574432,21.3130477 22.8344152,19.6132158 22.8344152,17.4934513 L22.8344152,4.02960268 L27.9623143,4.02960268 L27.9623143,17.0064427 C27.9623143,18.6868294 28.8976588,19.5271318 30.7698772,19.5271318 C32.6410032,19.5271318 33.5767847,18.6868294 33.5767847,17.0064427 L33.5767847,4.02960268 L38.7046838,4.02960268 L38.7046838,17.4934513 C38.7046838,19.6132158 37.9642301,21.3130477 36.4846334,22.5922914" id="Fill-16" fill="#592913" fill-rule="nonzero" mask="url(#mask-14)"></path>
                        </g>
                        <g id="Fill-17-Clipped" transform="translate(0.000000, 0.146387)">
                            <mask id="mask-16" fill="white">
                                <use xlink:href="#path-15"></use>
                            </mask>
                            <g id="path-16"></g>
                            <polygon id="Fill-17" fill="#592913" fill-rule="nonzero" mask="url(#mask-16)" points="52.6964376 4.02960268 57.7952779 4.02960268 57.7952779 24.0819384 53.8421855 24.0819384 46.7666899 13.9983083 46.7666899 24.0819384 41.6392277 24.0819384 41.6392277 4.02960268 45.6207234 4.02960268 52.6964376 14.1130142"></polygon>
                        </g>
                        <g id="Fill-18-Clipped" transform="translate(60.444040, 4.175990)" fill="#592913" fill-rule="nonzero">
                            <path d="M20.3269957,7.37154186 L20.6573486,9.37856703 C21.1351805,12.2805166 20.6129957,14.7811047 19.0907939,16.8798947 C17.5685923,18.978903 15.3564075,20.2673231 12.4546765,20.7449366 C9.36395384,21.2540123 6.66213877,20.6824491 4.34835729,19.0311214 C2.03413884,17.3800123 0.638878364,15.1033737 0.160827952,12.2014241 C-0.316785485,9.29991158 0.269416186,6.68702087 1.91899599,4.36362594 C3.56879428,2.04088649 5.85373542,0.638415926 8.77491184,0.157525179 C10.6215673,-0.14660927 12.3808277,-0.0102731378 14.0533487,0.565878112 C15.7254327,1.14246634 17.1082394,2.04700414 18.2015504,3.27949151 L14.3100714,6.44624775 C13.8121387,5.88932341 13.1503403,5.48577719 12.3251135,5.23407971 C11.5001051,4.98325619 10.6069286,4.93649989 9.64580258,5.09468476 C8.08121437,5.35228139 6.88390346,6.07197886 6.05299591,7.25377716 C5.22143291,8.43601243 4.93652534,9.81838215 5.19696232,11.4013233 C5.44822281,12.9276762 6.15546651,14.1372224 7.31847489,15.0293065 C8.48148328,15.9220459 9.95802106,16.2204996 11.7483067,15.9257603 C14.0472311,15.54734 15.4217353,14.4310879 15.8709453,12.57613 L11.0657521,13.3672728 L10.3491135,9.01434856 L20.3269957,7.37154186 Z" id="Fill-18"></path>
                        </g>
                        <g id="Fill-19-Clipped" transform="translate(82.917595, 5.017996)" fill="#592913" fill-rule="nonzero">
                            <polygon id="Fill-19" points="5.12768059 15.2397141 12.8905376 15.2397141 12.8905376 20.0523357 0 20.0523357 0 0 12.7474283 0 12.7474283 4.78378143 5.12768059 4.78378143 5.12768059 7.56250407 12.0314452 7.56250407 12.0314452 12.2892603 5.12768059 12.2892603"></polygon>
                        </g>
                        <g id="Fill-20-Clipped" transform="translate(97.913330, 5.017996)" fill="#592913" fill-rule="nonzero">
                            <path d="M5.12789907,4.72653774 L5.12789907,9.69363009 L7.8808402,9.34885699 C8.37920994,9.31783177 9.10983178,9.04275614 9.51075613,8.62238641 C9.9116805,8.20245364 10.1120334,7.65820155 10.1120334,6.98963014 C10.1120334,6.3212772 9.9116805,5.77702511 9.51075613,5.35687386 C9.10983178,4.9367226 8.59376455,4.72653774 7.96364692,4.72653774 L5.12789907,4.72653774 Z M10.4559326,20.0523357 L6.96122677,13.5781174 L5.12789907,13.8864032 L5.12789907,20.0523357 L0,20.0523357 L0,0 L8.02089062,0 C10.0644032,0 11.7779998,0.654151249 13.1629914,1.96223525 C14.5473275,3.27031927 15.2399325,4.92689067 15.2399325,6.93216795 C15.2399325,8.1355965 14.9342686,9.23830236 14.3233779,10.240941 C13.7116133,11.2435796 12.8809242,12.0412771 11.8310922,12.632941 L15.9561342,20.0523357 L10.4559326,20.0523357 Z" id="Fill-20"></path>
                        </g>
                    </g>
                </g>
            </g>
        </g>
    </g>
</svg>