<?xml version="1.0" encoding="UTF-8"?>
<svg width="53px" height="52px" viewBox="0 0 53 52" version="1.1" xmlns="http://www.w3.org/2000/svg" xmlns:xlink="http://www.w3.org/1999/xlink">
    <title>salla-logo</title>
    <g id="FINAL" stroke="none" stroke-width="1" fill="none" fill-rule="evenodd">
        <g id="HOMEPAGE" transform="translate(-163.000000, -3150.000000)">
            <g id="Group-28" transform="translate(79.904167, 3098.000000)">
                <g id="salla-logo" transform="translate(84.000000, 52.000000)">
                    <path d="M2.68506672,3.60701883 C2.17080916,4.19024783 1.72145246,4.82763321 1.34490952,5.50795101 C1.68106535,4.89020178 2.07913852,4.30821881 2.53299214,3.77097423 C2.58051545,3.71632243 2.62566258,3.66167063 2.67318589,3.60939499 L2.68506672,3.60701883 Z" id="Path" fill="#00E0B7" fill-rule="nonzero"></path>
                    <path d="M0.0689087918,12.8978249 L0.0689087918,12.8978249 C0.0653444728,12.9421084 0.0653444728,12.9866067 0.0689087918,13.0308901 C0.102541521,13.305934 0.235151154,13.5593282 0.441966734,13.7437397 C0.771283489,14.0603047 1.16410345,14.3032861 1.59440687,14.4565893 C2.65325383,14.8335435 3.75608165,15.0731151 4.87589106,15.1694389 C6.37569115,15.3234574 7.88300561,15.3924765 9.39060501,15.3761652 C9.77554378,15.3761652 10.1604825,15.3381466 10.5454213,15.3381466 C10.7378907,15.3381466 10.8258088,15.2739901 10.8495705,15.1242917 C10.8456973,15.0586082 10.8456973,14.9927535 10.8495705,14.92707 C10.8614513,14.2498629 10.8495705,13.575032 10.8733321,12.8954487 C10.8733321,13.5132517 10.8733321,14.1310547 10.8733321,14.7488576 C10.8733321,15.2549808 10.8305611,15.2122098 11.3485652,15.2240907 C16.652166,15.2454761 21.9581429,15.2240907 27.2688722,15.257357 C31.809724,15.2929995 36.3553281,15.257357 40.898556,15.257357 C40.9780465,15.2623595 41.0578505,15.2575712 41.1361725,15.2431 L41.1599342,15.2431 L41.1789435,15.2431 C41.1848245,15.2396291 41.1897297,15.234724 41.1932005,15.228843 C41.2022005,15.2214121 41.2088121,15.2114947 41.2122098,15.200329 C41.2224386,15.1787493 41.2281012,15.1552899 41.228843,15.1314202 C41.2327162,15.0657367 41.2327162,14.999882 41.228843,14.9341985 C41.214586,14.1904588 41.228843,13.4467191 41.2027052,12.7029793 C41.2027052,12.2919028 41.186072,11.8808262 41.1789435,11.4697496 C41.1789435,11.2012429 41.1789435,10.9351124 41.1789435,10.6666057 L41.1789435,9.98939865 C41.1789435,9.86583806 41.1789435,9.75178212 41.1789435,9.62109304 L41.1789435,9.00566624 C41.1789435,8.79893986 41.1789435,8.59221349 41.1789435,8.38786328 C41.1789435,8.18351307 41.1789435,7.97678669 41.1789435,7.77243648 C41.5995248,8.43776275 42.2292086,8.7894352 42.9064156,9.0769512 C44.0944983,9.58307439 45.3586182,9.8492049 46.6084811,10.153354 C47.9510144,10.4788887 49.3078048,10.7616523 50.5719247,11.3414367 C51.0515554,11.5351529 51.4719003,11.8514358 51.7908975,12.2586364 C51.9322734,12.4394591 52.0240067,12.6540496 52.057028,12.8811917 L52.057028,13.0213855 C52.057028,22.8777189 52.057028,32.7348443 52.057028,42.5927618 C51.41994,47.5938733 47.4163638,51.4940107 42.4002925,52 C31.522208,52 20.6433315,52 9.76366295,52 C4.52540272,51.4993897 0.405788875,47.3045822 0,42.0581247 L0,42.0581247" id="Path" fill="#5CD5C4" fill-rule="nonzero"></path>
                    <path d="M49.3814659,3.595138 C48.8872235,3.70681777 48.3882288,3.79948821 47.8916103,3.89453482 C46.482855,4.1291296 45.0900966,4.45132898 43.7214403,4.85925791 C43.0939107,5.03962573 42.499426,5.31961918 41.9607019,5.68853957 C41.4189278,6.03034458 41.0953678,6.63059801 41.1076586,7.27106562 L41.1076586,7.77006032 L41.1076586,7.77006032 C41.1076586,7.97441053 41.1076586,8.1811369 41.1076586,8.38548711 C41.1076586,8.58983732 41.1076586,8.7965637 41.1076586,9.00329007 L41.1076586,9.61871687 C41.1076586,9.74227746 41.1076586,9.85633339 41.1076586,9.98702248 L41.1076586,10.6642296 C41.1076586,10.9327362 41.1076586,11.1988668 41.1076586,11.4673734 C41.1076586,11.87845 41.1219156,12.2895266 41.1314202,12.7006032 C41.1480534,13.4443429 41.1314202,14.1880826 41.157558,14.9318223 C41.1614312,14.9975059 41.1614312,15.0633605 41.157558,15.1290441 C41.1568163,15.1529137 41.1511537,15.1763731 41.1409249,15.1979528 C41.1375271,15.2091185 41.1309155,15.2190359 41.1219156,15.2264668 C41.1184447,15.2323479 41.1135396,15.237253 41.1076586,15.2407238 L41.0886492,15.2407238 L41.0648876,15.2407238 C40.9865655,15.2551951 40.9067615,15.2599833 40.8272711,15.2549808 C36.2840431,15.2549808 31.738439,15.2787425 27.1975873,15.2549808 C21.8939865,15.2122098 16.5880095,15.2549808 11.2772802,15.2217145 C10.771157,15.2217145 10.8020472,15.2621093 10.8020472,14.7464814 C10.8020472,14.1286785 10.8020472,13.5108755 10.8020472,12.8930726 C10.8020472,11.2036191 10.8020472,9.51654177 10.8258088,7.82708828 L10.8258088,7.76768415 C10.8543228,6.38713215 10.5097788,5.81447633 9.03655639,5.15390239 C8.5985796,4.96162419 8.14852933,4.79811386 7.6892707,4.66441236 L7.49204899,4.60976056 C7.31858892,4.55986109 7.1427527,4.51471395 6.96691647,4.47194297 C6.87899835,4.44818132 6.78870408,4.429172 6.70078596,4.40778651 C6.082983,4.2652166 5.45567538,4.1487845 4.83312009,4.02522391 C4.46006215,3.94918662 4.08462804,3.88027783 3.70919393,3.80899287 C3.52147688,3.77335039 3.33613599,3.73770791 3.14841894,3.69731311 C2.96070188,3.6569183 2.78724182,3.62365198 2.60665326,3.58325717 L2.59239627,3.58325717 C4.38683481,1.55572594 6.87781103,0.276736449 9.57119357,0 L42.4596966,0 C45.134655,0.292930331 47.6034908,1.57523331 49.3814659,3.595138 L49.3814659,3.595138 Z" id="Path" fill="#37A596"></path>
                    <path d="M52.0023762,9.36921952 L52.0023762,12.8835679 C51.9693549,12.6564258 51.8776216,12.4418352 51.7362457,12.2610126 C51.4172485,11.853812 50.9969036,11.537529 50.5172729,11.3438128 C49.253153,10.7592762 47.9034911,10.4765125 46.5538293,10.1557302 C45.3039664,9.85158106 44.0445988,9.58545056 42.8517638,9.07932736 C42.1745568,8.79181137 41.544873,8.44013891 41.1242917,7.77481265 L41.1242917,7.77481265 L41.1242917,7.27581795 C41.1094431,6.63769722 41.4282205,6.03796343 41.9654542,5.6932919 C42.5024115,5.32315864 43.0952739,5.0415691 43.7214403,4.85925791 C45.0908756,4.45123295 46.4844305,4.12903289 47.8939865,3.89453482 C48.390605,3.79948821 48.8895997,3.70681777 49.3838421,3.595138 C50.8152073,5.21418613 51.7274398,7.22573325 52.0023762,9.36921952 L52.0023762,9.36921952 Z" id="Path" fill="#5CD5C4" fill-rule="nonzero"></path>
                    <path d="M10.9042223,7.78194114 L10.9042223,7.84134528 C10.4860172,8.46627673 9.87534272,8.79181137 9.21952111,9.08170353 C8.03143849,9.58545056 6.76731859,9.85395723 5.51745568,10.1581064 C4.17492232,10.483641 2.81813197,10.7664047 1.55401206,11.346189 C1.07427472,11.5408624 0.653972473,11.8579325 0.335039298,12.2657649 C0.193758593,12.4466438 0.102036477,12.661208 0.0689087918,12.8883202 L0.0689087918,9.85395723 C0.186361805,8.33456081 0.618464861,6.85618574 1.33778103,5.51270334 L1.33778103,5.50082252 C1.71432397,4.82050471 2.16368066,4.18311933 2.67793822,3.59989033 C2.85852678,3.64028514 3.03911534,3.68067995 3.21970389,3.71394626 C3.40029245,3.74721258 3.59276184,3.78998355 3.78047889,3.82562603 C4.155913,3.89691099 4.5313471,3.96581978 4.90440504,4.04185706 C5.52696034,4.16541766 6.15426796,4.27947359 6.77207092,4.42441967 C6.85998903,4.44580515 6.95028331,4.46481448 7.03820143,4.48857613 C7.21403765,4.5313471 7.38987388,4.57649424 7.56333394,4.62639371 L7.76055566,4.68104551 C8.21981428,4.81474702 8.66986455,4.97825734 9.10784135,5.17053555 C10.5881923,5.82873332 10.9303601,6.40138914 10.9042223,7.78194114 Z" id="Path" fill="#5CD5C4" fill-rule="nonzero"></path>
                    <path d="M10.856699,14.9389508 C10.8528258,15.0046344 10.8528258,15.070489 10.856699,15.1361725 C10.8329373,15.285871 10.7450192,15.3500274 10.5525498,15.3500274 C10.167611,15.3500274 9.78267227,15.3880461 9.3977335,15.3880461 C7.8901341,15.4043573 6.38281965,15.3353382 4.88301956,15.1813197 C3.76321014,15.084996 2.66038232,14.8454244 1.60153537,14.4684701 C1.17123195,14.3151669 0.778411985,14.0721855 0.449095229,13.7556205 C0.24227965,13.571209 0.109670017,13.3178148 0.0760372875,13.042771 C0.0724729685,12.9984875 0.0724729685,12.9539892 0.0760372875,12.9097057 L0.0760372875,12.9097057 C0.109561169,12.6834259 0.201263217,12.4697274 0.342167794,12.2895266 C0.661100969,11.8816942 1.08140321,11.5646241 1.56114056,11.3699506 C2.82526046,10.7877902 4.17492232,10.5050265 5.52458417,10.181868 C6.77444708,9.87771888 8.03619082,9.60921221 9.22664961,9.10546518 C9.88247121,8.82745385 10.4931457,8.49003838 10.9113508,7.86510693 C10.8780844,9.55456041 10.8852129,11.2416377 10.8875891,12.9310912 C10.8662036,13.5869128 10.8685798,14.2569914 10.856699,14.9389508 Z" id="Path" fill="#D6FFF7" fill-rule="nonzero"></path>
                    <path d="M52.0023762,13.0237617 C51.9691678,13.2989375 51.8364841,13.5524732 51.6293182,13.7366112 C51.3000015,14.0531762 50.9071815,14.2961576 50.4768781,14.4494608 C49.4180311,14.8264151 48.3152033,15.0659866 47.1953939,15.1623104 C45.6956006,15.3164202 44.1882809,15.3854395 42.6806799,15.3690367 C42.2957412,15.3690367 41.9108024,15.3310181 41.5258636,15.3310181 C41.3310181,15.3310181 41.2431,15.2668616 41.2193383,15.1171632 C41.2232115,15.0514797 41.2232115,14.985625 41.2193383,14.9199415 C41.2050813,14.1762018 41.2193383,13.4324621 41.1932005,12.6887224 C41.1932005,12.2776458 41.1765674,11.8665692 41.1694389,11.4554926 C41.1694389,11.1869859 41.1694389,10.9208554 41.1694389,10.6523487 L41.1694389,9.97514166 C41.1694389,9.85158106 41.1694389,9.73752513 41.1694389,9.60683604 L41.1694389,8.99140925 C41.1694389,8.78468287 41.1694389,8.5779565 41.1694389,8.37360629 C41.1694389,8.16925608 41.1694389,7.9625297 41.1694389,7.75817949 C41.5900201,8.42350576 42.2197039,8.77517821 42.896911,9.06269421 C44.0849936,9.5688174 45.3491135,9.83494791 46.5989764,10.1390971 C47.9415098,10.4646317 49.2983001,10.7473954 50.56242,11.3271797 C51.0420507,11.5208959 51.4623956,11.8371788 51.7813928,12.2443795 C51.9227687,12.4252021 52.014502,12.6397926 52.0475233,12.8669347 L52.0475233,12.8669347 C52.0376671,12.9205676 52.0225448,12.9730975 52.0023762,13.0237617 L52.0023762,13.0237617 Z" id="Path" fill="#D6FFF7"></path>
                    <path d="M38.1422044,34.0124292 C36.9815187,35.351032 35.5590956,36.4378635 33.9625297,37.2059952 C31.7087009,38.2933079 29.2559222,38.9071091 26.7556205,39.0095047 C26.6011698,39.0095047 26.4490952,39.0261378 26.2970207,39.0380186 L26.0261378,39.057028 L25.9952477,39.057028 C23.6222928,39.0277904 21.28344,38.4880551 19.1376348,37.4745019 C17.4571159,36.6993663 15.9138484,35.6560757 14.5682691,34.3854871 L14.5254981,34.3427161 C14.2210675,34.1005576 14.0150172,33.7560146 13.9457138,33.3732407 C13.8484525,32.7459689 14.165912,32.1273543 14.7322245,31.8406141 C15.3555048,31.5277858 16.1092975,31.6514999 16.5998903,32.1471395 C18.1444795,33.8129854 20.100809,35.0423504 22.2717967,35.7113873 C23.682236,36.1673368 25.169028,36.3393556 26.6463169,36.2175105 C28.0161379,36.1315614 29.3715332,35.8883875 30.6857978,35.4927801 C32.3741936,34.943191 33.9172321,34.0206164 35.2005118,32.7934564 L35.3454579,32.6603912 C35.5765343,32.4355627 35.8192361,32.2230003 36.0725644,32.0235789 C36.3840071,31.7774987 36.7813413,31.6670329 37.1751051,31.7170536 C37.5834028,31.7748209 37.9514677,31.9939479 38.1968562,32.3253519 C38.6074069,32.8207819 38.5839589,33.544609 38.1422044,34.0124292 Z" id="Path" fill="#FFFFFF" fill-rule="nonzero"></path>
                    <path d="M18.7336867,26.532261 C18.4569634,26.7206151 18.0932102,26.7206151 17.8164869,26.532261 L17.3816487,26.2946445 C17.1226467,26.1592031 16.8636447,26.0237617 16.6070188,25.8859441 C15.6232864,25.3608116 14.6157924,25.3584354 13.518004,25.8859441 C12.8455493,26.2114787 12.3014074,26.4871139 11.8047889,26.7603729 C11.7168708,26.8102723 11.6265765,26.8554195 11.5362822,26.9005666 C11.3992359,26.9733993 11.247092,27.0132659 11.0919393,27.0169987 C10.9194262,27.0160207 10.7521761,26.9574832 10.6167063,26.8506672 C10.3506239,26.630633 10.25495,26.2651586 10.3790897,25.942972 C10.5567162,25.2912461 10.8664913,24.6830191 11.289161,24.1560958 C12.2253701,22.9680132 13.4277097,22.3193201 14.7749954,22.2551558 L14.7963809,22.2551558 C16.5590321,22.2518236 18.1467194,23.3203146 18.8073478,24.9544873 C18.889534,25.1529973 18.9601454,25.356104 19.0188265,25.5627856 C19.167389,25.9125775 19.0479705,26.3186004 18.7336867,26.532261 L18.7336867,26.532261 Z" id="Path" fill="#FFFFFF" fill-rule="nonzero"></path>
                    <path d="M41.2953756,26.532261 C41.0274481,26.7497006 40.6505743,26.7717008 40.3591665,26.5869128 C39.9362091,26.3492963 39.5108755,26.1306891 39.0879181,25.9073296 C38.1601907,25.4129503 37.0478013,25.4102806 36.1177116,25.9002011 C35.5355511,26.1710839 34.9557668,26.4776092 34.3926156,26.7746299 L34.1098519,26.9243283 C33.9577391,27.0124019 33.7864833,27.0621477 33.6108572,27.0692744 C33.4301534,27.0690686 33.2558717,27.0022324 33.1213672,26.8815573 C32.8465289,26.6474035 32.7610738,26.2589715 32.9122647,25.9310912 C33.5704624,23.9612502 34.8678487,22.7660391 36.7687808,22.3668434 C36.9202236,22.3394129 37.0735313,22.3235261 37.2273807,22.3193201 L37.38896,22.3193201 L37.4341071,22.3193201 C39.4211327,22.3610916 41.1229476,23.7539315 41.5567538,25.6934747 C41.6451275,26.0001811 41.5423356,26.3300495 41.2953756,26.532261 L41.2953756,26.532261 Z" id="Path" fill="#FFFFFF" fill-rule="nonzero"></path>
                </g>
            </g>
        </g>
    </g>
</svg>