<?xml version="1.0" encoding="UTF-8"?>
<svg width="120px" height="34px" viewBox="0 0 120 34" version="1.1" xmlns="http://www.w3.org/2000/svg" xmlns:xlink="http://www.w3.org/1999/xlink">
    <title>shopify-logo</title>
    <g id="FINAL" stroke="none" stroke-width="1" fill="none" fill-rule="evenodd">
        <g id="HOMEPAGE" transform="translate(-358.000000, -3159.000000)" fill-rule="nonzero">
            <g id="Group-28" transform="translate(79.904167, 3098.000000)">
                <g id="Group-13-Copy-2" transform="translate(228.000000, 0.000000)">
                    <g id="shopify-logo" transform="translate(51.000000, 61.000000)">
                        <path d="M25.3835646,6.33229557 C25.3641434,6.15750438 25.2087734,6.07981941 25.092246,6.06039816 C24.9757185,6.04097692 22.6451694,6.02155568 22.6451694,6.02155568 C22.6451694,6.02155568 20.6836238,4.11827386 20.4894114,3.92406143 C20.2951989,3.729849 19.9261953,3.78811273 19.7708254,3.82695522 C19.7708254,3.82695522 19.4018218,3.94348268 18.780342,4.13769511 C18.6832358,3.80753397 18.5278658,3.39968787 18.3142322,2.99184177 C17.6150674,1.651776 16.6051628,0.952611252 15.3622032,0.952611252 C15.2845183,0.952611252 15.187412,0.952611252 15.1097271,0.972032495 C15.0708846,0.933190009 15.0320421,0.894347523 14.9931996,0.836083794 C14.4494048,0.253446503 13.7696613,-0.018450899 12.9539691,0.000970344041 C11.3614272,0.0398128301 9.78830648,1.18566617 8.4870832,3.24431793 C7.57428477,4.68148991 6.89454127,6.48766551 6.70032884,7.88599501 C4.874732,8.44921105 3.59292996,8.83763591 3.57350871,8.85705716 C2.66071029,9.1483758 2.62186781,9.16779705 2.50534035,10.041753 C2.40823413,10.682654 0,29.3464685 0,29.3464685 L20.217514,32.8422923 L28.9764946,30.6671131 C28.9764946,30.6671131 25.4029859,6.48766551 25.3835646,6.33229557 Z M17.7704374,4.44843499 C17.3043275,4.58438369 16.779954,4.75917488 16.1973167,4.93396607 C16.1778954,4.13769511 16.0807892,3.01126301 15.7117856,2.04020086 C16.9353239,2.27325578 17.5179612,3.63274279 17.7704374,4.44843499 Z M15.1485695,5.2641272 C14.0804012,5.59428833 12.9345478,5.94387071 11.7692733,6.31287432 C12.0994344,5.06991477 12.7209142,3.82695522 13.4783427,3.01126301 C13.7696613,2.70052312 14.1580862,2.37036199 14.624196,2.17614956 C15.0708846,3.08894798 15.1485695,4.39017126 15.1485695,5.2641272 L15.1485695,5.2641272 Z M12.9733903,1.06913871 C13.3423939,1.06913871 13.6531338,1.14682368 13.9250312,1.32161487 C13.4977639,1.53524854 13.0704965,1.86540967 12.6820717,2.29267702 C11.6721671,3.38026663 10.8953173,5.05049353 10.5845774,6.68187794 C9.61351529,6.97319659 8.68129563,7.26451523 7.80733969,7.53641263 C8.38997698,4.97280856 10.5263137,1.14682368 12.9733903,1.06913871 L12.9733903,1.06913871 Z" id="Shape" fill="#95BF47"></path>
                        <path d="M25.092246,6.06039816 C24.9757185,6.04097692 22.6451694,6.02155568 22.6451694,6.02155568 C22.6451694,6.02155568 20.6836238,4.11827386 20.4894114,3.92406143 C20.4117264,3.84637646 20.3146202,3.80753397 20.217514,3.80753397 L20.217514,32.8422923 L28.9764946,30.6671131 C28.9764946,30.6671131 25.4029859,6.50708675 25.3835646,6.33229557 C25.3447221,6.15750438 25.2087734,6.07981941 25.092246,6.06039816 Z" id="Path" fill="#5E8E3E"></path>
                        <path d="M15.3622032,10.5661265 L14.3522986,14.3726902 C14.3522986,14.3726902 13.2258665,13.8483166 11.8663795,13.9454228 C9.88541269,14.0619503 9.86599145,15.3049098 9.88541269,15.635071 C10.0019402,17.3441404 14.468826,17.713144 14.7213022,21.6944988 C14.9155146,24.8407402 13.0510753,26.9770769 10.3709438,27.1518681 C7.14701743,27.3460805 5.37968431,25.4622199 5.37968431,25.4622199 L6.05942782,22.5684547 C6.05942782,22.5684547 7.84618218,23.9085205 9.26393292,23.8308355 C10.1961526,23.7725718 10.5263137,23.0151433 10.4874712,22.4713485 C10.3515225,20.2573268 6.70032884,20.3738543 6.46727392,16.7420818 C6.27306149,13.6735254 8.29287077,10.5661265 12.7403354,10.2748079 C14.4882473,10.119438 15.3622032,10.5661265 15.3622032,10.5661265 L15.3622032,10.5661265 Z" id="Path" fill="#FFFFFF"></path>
                        <path d="M40.8428741,18.6842061 C39.8329694,18.1404113 39.3085959,17.6743015 39.3085959,17.0334005 C39.3085959,16.2177083 40.0271818,15.6933347 41.1730352,15.6933347 C42.4936797,15.6933347 43.6589543,16.2371295 43.6589543,16.2371295 L44.591174,13.401628 C44.591174,13.401628 43.7366393,12.7413058 41.2312989,12.7413058 C37.7354752,12.7413058 35.3078198,14.7416938 35.3078198,17.557774 C35.3078198,19.150316 36.4342519,20.3738543 37.9491088,21.2478102 C39.1726472,21.9469749 39.5999145,22.432506 39.5999145,23.1705133 C39.5999145,23.9279417 38.997856,24.5300003 37.8520026,24.5300003 C36.1623545,24.5300003 34.5698126,23.6560443 34.5698126,23.6560443 L33.5793292,26.4915458 C33.5793292,26.4915458 35.0553436,27.4820292 37.5218415,27.4820292 C41.1147715,27.4820292 43.6977968,25.7146961 43.6977968,22.5296122 C43.717218,20.8011216 42.4159947,19.5775833 40.8428741,18.6842061 L40.8428741,18.6842061 Z M55.1757514,12.7024633 C53.4084183,12.7024633 52.0100888,13.5375767 50.9419204,14.8193788 L50.8836567,14.7999575 L52.4179349,6.75956291 L48.4171588,6.75956291 L44.5329102,27.2101318 L48.5336863,27.2101318 L49.8737521,20.2184843 C50.3981256,17.5771953 51.7576126,15.9458109 53.0394147,15.9458109 C53.9327918,15.9458109 54.2823742,16.5478694 54.2823742,17.4218253 C54.2823742,17.9656201 54.2241105,18.6453636 54.107583,19.1891584 L52.5927261,27.1907106 L56.5935021,27.1907106 L58.1666228,18.917261 C58.341414,18.0433051 58.4579415,16.994558 58.4579415,16.3148145 C58.4579415,14.0813715 57.2538244,12.7024633 55.1757514,12.7024633 Z M67.5082407,12.7024633 C62.6917724,12.7024633 59.5066886,17.0528217 59.5066886,21.9081325 C59.5066886,25.0155313 61.4293916,27.5014504 65.0223216,27.5014504 C69.7416837,27.5014504 72.9461888,23.2676195 72.9461888,18.2957813 C72.9267675,15.4408585 71.2371194,12.7024633 67.5082407,12.7024633 Z M65.5272739,24.4328941 C64.1677869,24.4328941 63.5851496,23.2676195 63.5851496,21.8304475 C63.5851496,19.5387408 64.7698454,15.7904409 66.9450247,15.7904409 C68.3627754,15.7904409 68.8288852,17.0139792 68.8288852,18.198675 C68.8288852,20.6651729 67.6441894,24.4328941 65.5272739,24.4328941 Z M83.1617626,12.7024633 C80.4622098,12.7024633 78.9279316,15.0718549 78.9279316,15.0718549 L78.8696679,15.0718549 L79.1027228,12.9160969 L75.5680566,12.9160969 C75.3932654,14.3726902 75.0825255,16.5672906 74.7523644,18.2180963 L71.9751266,32.8617135 L75.9759027,32.8617135 L77.0829135,26.9382344 L77.1605985,26.9382344 C77.1605985,26.9382344 77.9762907,27.462608 79.5105689,27.462608 C84.2105097,27.462608 87.2790661,22.6461397 87.2790661,17.7714077 C87.2984873,15.1106974 86.0943703,12.7024633 83.1617626,12.7024633 Z M79.3357777,24.4911578 C78.2870306,24.4911578 77.684972,23.9085205 77.684972,23.9085205 L78.3452943,20.1602206 C78.8114041,17.6743015 80.1126274,16.0040746 81.5109569,16.0040746 C82.7344952,16.0040746 83.1034988,17.1305067 83.1034988,18.2180963 C83.1034988,20.8011216 81.5692207,24.4911578 79.3357777,24.4911578 Z M93.0083328,6.97319659 C91.7265307,6.97319659 90.7166261,7.98310122 90.7166261,9.30374575 C90.7166261,10.4884416 91.4740546,11.3041338 92.6004867,11.3041338 L92.6587504,11.3041338 C93.90171,11.3041338 94.9892996,10.4690203 95.0087208,8.97358462 C95.0087208,7.80831003 94.2318711,6.97319659 93.0083328,6.97319659 Z M87.4150148,27.2101318 L91.4157909,27.2101318 L94.1347649,13.0326244 L90.0951463,13.0326244 L87.4150148,27.2101318 Z M104.311496,12.9937819 L101.534258,12.9937819 L101.670207,12.3334597 C101.903262,10.9739726 102.718954,9.75043434 104.039599,9.75043434 C104.758185,9.75043434 105.321401,9.94464677 105.321401,9.94464677 L106.098251,6.81782664 C106.098251,6.81782664 105.399086,6.46824427 103.923071,6.46824427 C102.505321,6.46824427 101.08757,6.87609037 99.9999803,7.80831003 C98.6404933,8.97358462 97.9995922,10.6438115 97.6694311,12.3334597 L97.5529037,12.9937819 L95.6884643,12.9937819 L95.105827,16.0040746 L96.9702664,16.0040746 L94.8533509,27.2101318 L98.8541269,27.2101318 L100.971042,16.0040746 L103.728859,16.0040746 L104.311496,12.9937819 L104.311496,12.9937819 Z M113.944433,13.0326244 C113.944433,13.0326244 111.439092,19.3445284 110.31266,22.7820884 L110.254397,22.7820884 C110.176712,21.6750775 109.263913,13.0326244 109.263913,13.0326244 L105.068925,13.0326244 L107.477159,26.0642785 C107.535423,26.3555971 107.49658,26.5303883 107.399474,26.7246007 C106.933364,27.6179779 106.156514,28.4919338 105.224295,29.1328349 C104.466866,29.6766297 103.631753,30.026212 102.952009,30.259267 L104.05902,33.6579845 C104.874712,33.4831933 106.544939,32.822871 107.982111,31.4828053 C109.807708,29.7737359 111.497356,27.1324468 113.225847,23.5395169 L118.12,13.0326244 L113.944433,13.0326244 L113.944433,13.0326244 Z" id="Shape" fill="#000000"></path>
                    </g>
                </g>
            </g>
        </g>
    </g>
</svg>